<svg id="svg" version="1.1" xmlns="http://www.w3.org/2000/svg" xmlns:xlink="http://www.w3.org/1999/xlink" width="400" height="421.0526315789474" viewBox="0, 0, 400,421.0526315789474"><g id="svgg"><path id="path0" d="M350.400 2.110 C 346.616 3.835,340.819 6.438,338.600 7.410 C 326.206 12.836,326.102 13.259,333.451 28.284 C 335.733 32.950,337.600 36.860,337.600 36.974 C 337.600 37.087,338.156 38.399,338.835 39.890 C 340.006 42.460,340.453 43.470,341.761 46.500 C 342.070 47.215,342.721 48.700,343.208 49.800 C 343.695 50.900,344.327 52.340,344.612 53.000 C 344.897 53.660,345.576 55.190,346.121 56.400 C 346.665 57.610,347.497 59.500,347.969 60.600 C 348.442 61.700,349.008 62.922,349.228 63.316 C 349.747 64.248,349.380 64.800,348.238 64.800 C 344.877 64.800,344.174 73.168,346.878 81.000 C 349.391 88.279,354.290 94.861,360.349 99.097 L 362.497 100.600 362.246 109.800 C 362.010 118.422,361.827 120.848,360.845 128.400 C 360.631 130.050,360.162 133.740,359.804 136.600 C 359.446 139.460,358.982 143.150,358.773 144.800 C 357.995 150.941,357.184 160.262,355.972 177.000 C 354.588 196.105,354.110 201.577,353.594 204.200 C 353.378 205.300,353.156 206.644,353.100 207.187 C 352.902 209.132,349.699 209.179,337.000 207.422 C 334.800 207.118,332.100 206.756,331.000 206.619 C 328.746 206.338,327.479 206.100,319.000 204.364 C 315.700 203.689,312.190 202.983,311.200 202.796 C 310.210 202.610,307.960 202.166,306.200 201.811 C 304.440 201.455,301.830 200.978,300.400 200.750 C 298.970 200.523,296.900 200.192,295.800 200.015 C 294.700 199.838,291.820 199.410,289.400 199.065 C 286.980 198.719,283.740 198.237,282.200 197.995 C 278.182 197.362,275.499 197.003,267.600 196.042 C 263.750 195.574,259.382 195.012,257.893 194.795 C 256.403 194.578,254.382 194.400,253.400 194.400 C 250.732 194.400,241.229 192.882,238.400 192.003 C 237.850 191.832,236.680 191.499,235.800 191.262 C 234.920 191.025,232.760 190.400,231.000 189.872 C 225.234 188.143,223.442 187.634,220.200 186.802 C 218.440 186.351,216.640 185.830,216.200 185.644 C 215.760 185.459,214.500 184.965,213.400 184.547 C 209.680 183.134,202.583 171.199,202.621 166.421 C 202.668 160.466,205.528 149.733,208.702 143.600 C 211.051 139.061,211.195 138.969,216.555 138.642 C 235.993 137.452,237.524 136.466,238.011 124.816 L 238.293 118.066 239.746 116.292 C 241.464 114.196,241.542 113.340,240.200 111.362 C 238.906 109.455,238.931 109.217,240.600 107.600 C 242.396 105.859,242.366 105.525,240.200 103.116 C 237.505 100.118,237.788 99.036,241.764 97.138 C 247.205 94.540,246.518 89.887,239.800 83.843 C 231.772 76.619,230.961 75.328,231.233 70.200 C 231.534 64.542,231.372 56.150,230.929 54.400 C 228.145 43.402,227.581 41.550,226.791 40.800 C 223.868 38.027,221.299 32.553,220.220 26.800 C 218.673 18.555,217.333 15.933,213.371 13.399 C 212.168 12.629,211.107 12.000,211.013 12.000 C 210.919 12.000,209.528 11.386,207.921 10.635 C 204.843 9.196,200.546 7.606,197.700 6.851 C 193.683 5.785,192.827 5.593,189.600 5.028 C 182.369 3.764,179.301 3.525,172.800 3.724 C 169.170 3.834,165.480 4.043,164.600 4.187 C 161.258 4.734,155.490 6.141,153.700 6.846 C 153.205 7.041,152.395 7.361,151.900 7.557 C 136.845 13.526,127.707 23.244,113.119 48.800 C 111.181 52.195,106.000 62.819,106.000 63.399 C 106.000 64.013,101.943 72.381,100.182 75.400 C 95.654 83.160,94.436 87.428,93.786 97.800 C 93.648 100.000,93.199 102.880,92.787 104.200 C 92.375 105.520,91.647 108.580,91.169 111.000 C 90.691 113.420,90.158 116.120,89.984 117.000 C 88.745 123.256,87.499 128.411,86.793 130.200 C 86.620 130.640,85.989 132.260,85.392 133.800 C 84.795 135.340,84.162 136.960,83.985 137.400 C 83.614 138.325,81.689 143.724,81.205 145.200 C 78.285 154.096,80.873 166.164,87.112 172.742 C 88.138 173.822,89.200 176.401,89.200 177.807 C 89.200 178.599,89.409 180.948,89.665 183.027 C 91.588 198.676,85.531 211.970,72.000 221.800 C 70.790 222.679,69.440 223.702,69.000 224.074 C 68.560 224.446,66.560 225.976,64.556 227.475 C 57.205 232.971,41.479 245.481,39.119 247.709 C 38.833 247.979,37.249 249.368,35.599 250.795 C 22.951 261.736,12.304 273.276,7.547 281.200 C 1.589 291.125,1.842 296.510,8.531 302.166 C 11.663 304.814,14.674 307.798,16.638 310.200 C 17.717 311.520,18.698 312.690,18.817 312.800 C 18.936 312.910,20.376 314.620,22.016 316.600 C 23.656 318.580,25.096 320.290,25.218 320.400 C 25.339 320.510,27.404 322.850,29.808 325.600 C 36.324 333.056,58.434 355.068,64.600 360.237 C 70.045 364.803,81.112 372.099,90.800 377.509 C 91.790 378.062,93.078 378.849,93.662 379.257 C 94.246 379.666,94.815 380.000,94.926 380.000 C 95.671 380.000,108.831 388.344,114.993 392.724 C 117.629 394.597,125.235 399.602,131.895 403.844 C 147.661 413.888,153.200 418.155,153.200 420.256 C 153.200 420.868,205.146 421.043,235.700 420.534 L 251.600 420.270 251.600 417.112 C 251.600 413.921,252.119 409.372,252.776 406.800 C 254.128 401.512,255.320 397.297,255.633 396.705 C 255.835 396.323,256.000 395.736,256.000 395.400 C 256.000 395.064,256.170 394.477,256.378 394.095 C 256.970 393.005,259.433 385.005,260.533 380.598 C 262.068 374.448,262.333 372.763,263.013 364.800 C 263.361 360.730,263.815 356.305,264.023 354.967 C 264.230 353.629,264.400 351.629,264.400 350.522 C 264.400 349.415,264.577 347.575,264.794 346.433 C 265.010 345.290,265.372 337.301,265.598 328.678 C 265.824 320.055,266.179 311.393,266.387 309.428 L 266.766 305.856 269.907 302.966 C 282.031 291.810,286.905 272.366,280.076 262.400 C 277.693 258.923,272.610 253.972,268.200 250.833 C 266.220 249.423,264.420 248.098,264.200 247.887 C 263.945 247.644,266.855 247.602,272.200 247.772 C 286.448 248.224,333.881 247.160,355.000 245.914 C 364.553 245.351,373.581 245.305,380.644 245.784 L 385.487 246.113 387.056 244.544 C 389.530 242.070,390.567 238.605,391.289 230.400 C 392.004 222.279,391.946 145.043,391.209 124.194 L 390.671 108.989 391.645 107.394 C 396.364 99.667,398.236 83.110,395.985 69.000 C 395.148 63.749,394.700 62.626,391.285 57.200 C 383.544 44.903,381.620 42.971,376.371 42.230 C 374.686 41.993,374.486 41.839,373.832 40.286 C 373.442 39.359,372.802 37.880,372.410 37.000 C 372.017 36.120,370.850 33.330,369.817 30.800 C 368.784 28.270,367.703 25.660,367.417 25.000 C 367.130 24.340,366.494 22.810,366.004 21.600 C 365.513 20.390,364.682 18.450,364.156 17.288 C 363.630 16.127,363.200 15.074,363.200 14.949 C 363.200 14.823,362.912 14.064,362.559 13.260 C 362.207 12.457,361.771 11.440,361.590 11.000 C 358.143 2.609,354.921 0.049,350.400 2.110 M85.376 148.306 C 86.113 155.605,86.496 158.774,86.814 160.200 C 88.229 166.542,87.617 168.099,85.455 163.658 C 82.546 157.681,82.209 152.812,84.236 146.075 C 84.570 144.966,85.154 146.110,85.376 148.306 M110.207 265.470 C 110.590 266.279,111.499 269.834,112.225 273.370 C 113.908 281.559,121.607 301.794,120.569 295.300 C 120.054 292.074,120.952 292.769,125.354 299.000 C 128.336 303.222,129.200 304.173,129.200 303.233 C 129.200 302.306,129.934 302.881,131.042 304.677 C 131.679 305.709,132.965 307.713,133.900 309.130 C 134.835 310.547,135.600 311.892,135.600 312.120 C 135.600 312.347,135.700 312.433,135.823 312.310 C 135.946 312.188,135.586 309.727,135.023 306.841 C 132.915 296.032,133.637 296.987,145.578 320.800 C 154.260 338.115,155.155 340.549,159.772 359.408 C 163.330 373.940,163.050 377.545,158.315 378.173 C 157.188 378.323,155.644 378.705,154.884 379.023 C 151.896 380.271,149.721 379.568,143.532 375.354 C 140.908 373.567,136.499 370.099,135.200 368.800 C 135.090 368.690,133.020 366.813,130.600 364.630 C 123.866 358.553,100.807 335.246,97.131 330.800 C 95.380 328.682,92.992 325.559,83.215 312.600 C 80.725 309.300,76.959 304.473,74.844 301.873 C 70.172 296.127,68.800 294.130,68.800 293.071 C 68.800 291.447,72.756 288.416,85.600 280.197 C 96.423 273.272,102.774 268.715,106.595 265.134 C 108.278 263.556,109.345 263.655,110.207 265.470 " stroke="none" fill="#040404" fill-rule="evenodd"></path><path id="path1" d="M0.000 210.400 L 0.000 420.800 76.200 420.800 C 162.714 420.800,154.232 421.212,150.100 417.214 C 147.197 414.406,143.995 412.181,130.800 403.807 C 124.970 400.107,117.021 394.857,113.135 392.140 C 109.248 389.423,105.951 387.200,105.808 387.200 C 105.664 387.200,104.957 386.750,104.236 386.200 C 103.514 385.650,102.808 385.200,102.666 385.200 C 102.524 385.200,101.145 384.390,99.600 383.400 C 98.055 382.410,96.700 381.600,96.588 381.600 C 96.476 381.600,95.623 381.117,94.692 380.527 C 93.099 379.516,90.544 378.024,86.400 375.685 C 83.520 374.060,72.449 366.899,69.496 364.751 C 63.273 360.226,60.804 357.960,45.794 343.000 C 35.117 332.359,33.136 330.294,27.997 324.443 C 26.569 322.817,25.215 321.287,24.989 321.043 C 24.763 320.800,23.238 318.980,21.600 317.000 C 19.962 315.020,18.437 313.202,18.211 312.959 C 17.985 312.717,17.088 311.637,16.217 310.559 C 15.346 309.482,13.194 307.250,11.435 305.600 C 3.391 298.057,2.728 297.104,2.747 293.119 C 2.766 289.102,6.526 280.074,9.209 277.600 C 9.329 277.490,10.135 276.410,11.000 275.200 C 11.865 273.990,12.670 272.910,12.787 272.800 C 12.904 272.690,14.169 271.250,15.597 269.600 C 19.825 264.717,30.178 254.625,36.200 249.518 C 36.860 248.958,38.315 247.700,39.433 246.721 C 40.551 245.743,42.801 243.877,44.433 242.573 C 46.065 241.270,47.490 240.104,47.600 239.984 C 47.710 239.863,49.870 238.159,52.400 236.197 C 54.930 234.236,57.559 232.174,58.243 231.615 C 60.006 230.175,60.544 229.760,65.012 226.400 C 67.205 224.750,69.090 223.310,69.200 223.200 C 69.310 223.090,71.123 221.696,73.228 220.102 C 83.651 212.210,87.691 204.978,88.831 192.170 C 89.532 184.294,88.704 175.073,87.200 174.000 C 86.397 173.427,81.992 165.627,80.761 162.600 C 78.452 156.918,78.778 149.017,81.604 142.200 C 81.787 141.760,82.418 140.050,83.007 138.400 C 83.596 136.750,84.421 134.637,84.839 133.704 C 85.258 132.772,85.600 131.899,85.600 131.765 C 85.600 131.631,85.847 130.954,86.148 130.260 C 86.797 128.769,87.364 126.689,88.017 123.400 C 88.280 122.080,88.730 119.920,89.018 118.600 C 89.306 117.280,89.654 115.660,89.792 115.000 C 89.930 114.340,90.220 112.990,90.437 112.000 C 90.654 111.010,91.009 109.120,91.226 107.800 C 91.443 106.480,91.796 105.087,92.010 104.705 C 92.225 104.323,92.400 103.659,92.400 103.229 C 92.400 102.799,92.580 102.336,92.800 102.200 C 93.020 102.064,93.200 100.319,93.200 98.323 C 93.200 96.326,93.395 93.501,93.633 92.046 C 94.351 87.657,95.302 83.423,95.661 83.020 C 95.848 82.811,96.000 82.413,96.000 82.135 C 96.000 81.858,97.230 79.484,98.733 76.861 C 100.236 74.237,101.750 71.485,102.098 70.745 C 103.536 67.684,105.200 63.969,105.200 63.819 C 105.200 62.826,113.043 47.329,114.857 44.738 C 115.265 44.154,115.600 43.574,115.600 43.450 C 115.600 42.883,124.138 29.826,126.619 26.600 C 132.374 19.115,140.726 11.899,146.963 9.023 C 157.784 4.035,168.751 2.107,180.200 3.181 C 192.477 4.333,200.483 6.405,209.800 10.843 C 216.811 14.182,219.087 17.133,220.409 24.600 C 221.817 32.553,222.451 34.188,225.980 38.971 C 227.745 41.363,228.482 42.786,228.981 44.771 C 229.910 48.465,230.441 50.441,230.817 51.600 C 232.436 56.597,232.577 59.316,231.756 69.725 C 231.344 74.950,232.126 76.184,240.734 83.898 C 247.268 89.753,247.645 94.822,241.768 97.800 C 238.601 99.405,238.463 100.343,240.977 103.174 C 243.167 105.640,243.189 105.866,241.400 107.600 C 239.804 109.147,239.697 109.789,240.800 111.200 C 242.016 112.754,241.818 114.563,240.200 116.682 L 238.800 118.515 238.800 123.652 C 238.800 136.073,234.829 138.882,216.800 139.217 C 211.487 139.315,211.801 139.114,209.011 144.200 C 207.289 147.337,205.395 153.088,204.399 158.200 C 202.340 168.771,202.383 168.970,208.931 179.093 C 212.016 183.863,211.942 183.815,219.600 185.983 C 220.590 186.263,221.850 186.632,222.400 186.801 C 222.950 186.971,224.570 187.420,226.000 187.799 C 227.430 188.178,228.960 188.628,229.400 188.799 C 229.840 188.969,231.010 189.331,232.000 189.603 C 232.990 189.876,234.610 190.324,235.600 190.600 C 238.992 191.546,240.601 191.962,241.800 192.205 C 244.154 192.681,250.744 193.563,255.434 194.029 C 267.713 195.249,268.490 195.348,283.600 197.609 C 284.810 197.790,287.150 198.124,288.800 198.351 C 292.196 198.819,298.762 199.857,301.900 200.422 C 303.055 200.630,304.945 200.969,306.100 201.176 C 308.257 201.562,313.360 202.606,316.200 203.243 C 321.648 204.465,329.442 205.837,335.400 206.622 C 336.280 206.738,338.980 207.098,341.400 207.422 C 350.520 208.643,352.800 208.359,352.800 206.004 C 352.800 205.155,352.970 203.592,353.178 202.531 C 353.569 200.534,354.147 194.299,354.841 184.600 C 355.061 181.520,355.408 176.750,355.611 174.000 C 355.814 171.250,356.158 166.570,356.377 163.600 C 356.794 157.908,357.843 147.183,358.410 142.800 C 358.596 141.370,358.927 138.760,359.147 137.000 C 359.367 135.240,359.848 131.460,360.216 128.600 C 361.249 120.560,361.582 116.418,361.842 108.395 L 362.083 100.990 359.855 99.455 C 349.854 92.568,342.350 76.585,345.007 67.829 C 345.691 65.572,346.599 64.400,347.662 64.400 C 348.801 64.400,348.579 63.096,346.800 59.352 C 345.920 57.500,345.200 55.813,345.200 55.604 C 345.200 55.395,344.878 54.634,344.485 53.912 C 344.092 53.190,343.428 51.790,343.009 50.800 C 342.590 49.810,341.651 47.682,340.923 46.071 C 340.196 44.460,339.600 43.069,339.600 42.981 C 339.600 42.892,339.084 41.691,338.454 40.310 C 337.824 38.930,336.816 36.720,336.214 35.400 C 335.613 34.080,333.711 30.120,331.988 26.600 C 326.144 14.662,326.437 12.365,334.259 8.758 C 335.766 8.063,338.303 6.888,339.895 6.147 C 341.487 5.406,342.897 4.800,343.026 4.800 C 343.271 4.800,348.849 2.251,350.128 1.555 C 353.586 -0.329,357.723 1.703,360.068 6.437 C 361.954 10.244,363.600 13.931,363.600 14.349 C 363.600 14.530,363.856 15.200,364.170 15.839 C 364.483 16.477,365.850 19.700,367.207 23.000 C 368.564 26.300,370.018 29.755,370.437 30.678 C 370.857 31.601,371.200 32.458,371.200 32.582 C 371.200 32.707,371.560 33.617,372.000 34.604 C 372.440 35.592,373.164 37.255,373.610 38.300 C 374.884 41.289,374.955 41.358,377.238 41.822 C 382.349 42.860,383.417 44.010,393.021 58.800 C 395.132 62.052,395.985 64.013,395.994 65.640 C 395.997 66.212,396.180 67.202,396.400 67.840 C 397.059 69.751,397.513 81.791,397.159 88.000 C 396.647 96.992,394.629 104.608,391.754 108.400 C 391.419 108.841,391.392 111.963,391.652 120.200 C 392.614 150.673,392.842 220.384,392.002 227.400 C 391.791 229.160,391.530 232.092,391.421 233.916 C 391.225 237.185,390.582 240.238,389.933 240.980 C 389.750 241.189,389.600 241.689,389.600 242.091 C 389.600 242.492,388.775 243.646,387.767 244.654 L 385.934 246.487 380.067 246.207 C 371.358 245.791,367.388 245.810,359.200 246.309 C 340.221 247.466,305.591 248.420,283.023 248.409 L 265.845 248.400 268.807 250.486 C 272.581 253.146,278.614 259.096,280.681 262.200 C 287.542 272.498,282.493 292.481,270.267 303.416 C 267.924 305.511,267.570 306.021,267.227 307.794 C 266.652 310.762,265.988 323.944,265.987 332.400 C 265.987 339.324,265.760 343.115,264.756 353.000 C 264.532 355.200,264.193 358.710,264.001 360.800 C 262.848 373.384,262.485 375.979,261.258 380.400 C 261.044 381.170,260.594 382.804,260.258 384.030 C 259.922 385.257,258.738 389.037,257.628 392.430 C 254.998 400.473,254.971 400.559,254.204 403.600 C 253.844 405.030,253.388 406.830,253.193 407.600 C 252.997 408.370,252.738 409.900,252.618 411.000 C 252.497 412.100,252.286 413.926,252.148 415.058 C 252.010 416.190,252.021 417.945,252.173 418.958 L 252.449 420.800 326.225 420.800 L 400.000 420.800 400.000 210.400 L 400.000 0.000 200.000 0.000 L 0.000 0.000 0.000 210.400 M84.243 148.400 C 83.015 153.590,83.691 159.231,86.065 163.600 L 86.826 165.000 86.651 163.600 C 86.555 162.830,86.172 159.950,85.800 157.200 C 85.428 154.450,85.000 151.030,84.849 149.600 C 84.589 147.138,84.557 147.075,84.243 148.400 M105.249 267.158 C 101.408 270.466,94.182 275.554,85.600 280.993 C 67.163 292.678,67.682 291.888,73.622 299.229 C 75.835 301.963,80.221 307.620,83.370 311.800 C 94.709 326.853,97.995 330.879,104.645 337.869 C 112.650 346.284,125.779 359.493,128.600 361.972 C 129.700 362.938,131.592 364.645,132.803 365.764 C 141.057 373.389,150.319 379.629,152.535 379.057 C 156.611 378.005,160.277 376.942,160.643 376.707 C 162.101 375.772,161.431 368.111,159.200 360.200 C 158.629 358.178,157.538 353.489,156.592 349.000 C 156.453 348.340,156.195 347.440,156.019 347.000 C 155.843 346.560,155.191 344.580,154.572 342.600 C 153.952 340.620,153.315 338.730,153.156 338.400 C 152.432 336.895,151.600 334.851,151.600 334.576 C 151.600 333.839,136.510 304.214,135.323 302.621 C 134.745 301.845,134.727 301.877,135.003 303.200 C 135.449 305.339,135.925 307.935,136.387 310.764 C 137.072 314.951,136.627 314.703,132.961 308.854 C 130.587 305.065,130.141 304.555,129.534 304.934 C 129.150 305.174,128.771 305.287,128.692 305.185 C 128.612 305.083,127.674 303.655,126.607 302.012 C 125.540 300.368,124.515 298.838,124.329 298.612 C 124.143 298.385,123.453 297.500,122.795 296.645 L 121.600 295.090 121.600 297.378 C 121.600 301.232,120.088 298.783,116.549 289.200 C 116.427 288.870,116.182 288.240,116.004 287.800 C 115.826 287.360,115.456 286.370,115.180 285.600 C 114.905 284.830,114.419 283.570,114.099 282.800 C 113.780 282.030,113.377 281.040,113.205 280.600 C 112.606 279.073,112.040 276.579,111.390 272.600 C 111.030 270.400,110.570 268.287,110.368 267.905 C 110.165 267.523,110.000 266.876,110.000 266.467 C 110.000 264.040,108.639 264.238,105.249 267.158 " stroke="none" fill="#fbfbfb" fill-rule="evenodd"></path><path id="path2" d="M357.738 3.153 C 358.343 3.898,359.193 5.203,359.627 6.053 C 360.061 6.904,360.514 7.600,360.633 7.600 C 361.082 7.600,358.652 3.602,357.667 2.720 C 356.660 1.820,356.662 1.829,357.738 3.153 M172.313 3.095 C 173.476 3.176,175.276 3.176,176.313 3.093 C 177.351 3.011,176.400 2.945,174.200 2.946 C 172.000 2.947,171.151 3.014,172.313 3.095 M166.505 3.487 C 167.114 3.579,168.014 3.577,168.505 3.482 C 168.997 3.387,168.500 3.311,167.400 3.314 C 166.300 3.317,165.897 3.395,166.505 3.487 M180.307 3.490 C 181.026 3.579,182.106 3.577,182.707 3.486 C 183.308 3.395,182.720 3.322,181.400 3.324 C 180.080 3.326,179.588 3.401,180.307 3.490 M160.400 4.406 C 159.978 4.682,160.215 4.723,161.200 4.542 C 162.925 4.225,163.251 3.998,161.967 4.006 C 161.435 4.009,160.730 4.189,160.400 4.406 M186.833 4.144 C 186.925 4.224,187.810 4.396,188.800 4.527 C 190.002 4.686,190.334 4.647,189.800 4.410 C 189.036 4.072,186.486 3.843,186.833 4.144 M157.000 5.200 C 156.496 5.417,156.422 5.544,156.800 5.544 C 157.130 5.544,157.760 5.389,158.200 5.200 C 158.704 4.983,158.778 4.856,158.400 4.856 C 158.070 4.856,157.440 5.011,157.000 5.200 M191.633 4.944 C 191.725 5.023,192.340 5.208,193.000 5.356 C 193.876 5.552,194.038 5.515,193.600 5.218 C 193.060 4.853,191.232 4.598,191.633 4.944 M196.433 6.144 C 196.525 6.223,197.140 6.408,197.800 6.556 C 198.676 6.752,198.838 6.715,198.400 6.418 C 197.860 6.053,196.032 5.798,196.433 6.144 M204.000 8.534 C 204.000 8.637,204.581 8.924,205.291 9.172 C 206.001 9.419,206.406 9.457,206.191 9.256 C 205.735 8.829,204.000 8.258,204.000 8.534 M138.512 14.306 C 137.143 15.348,136.018 16.337,136.012 16.505 C 136.002 16.755,139.590 14.046,140.980 12.753 C 141.968 11.834,140.759 12.595,138.512 14.306 M216.215 15.238 C 216.867 16.029,217.628 17.019,217.906 17.438 C 218.193 17.871,218.166 17.682,217.844 17.000 C 217.531 16.340,216.771 15.350,216.153 14.800 L 215.030 13.800 216.215 15.238 M327.883 14.805 C 327.767 15.248,327.813 16.103,327.984 16.705 C 328.247 17.624,328.300 17.495,328.315 15.900 C 328.335 13.847,328.214 13.540,327.883 14.805 M133.186 19.100 L 131.000 21.400 133.300 19.214 C 134.565 18.011,135.600 16.976,135.600 16.914 C 135.600 16.617,135.218 16.963,133.186 19.100 M129.163 23.500 C 127.450 25.411,126.669 26.400,126.875 26.400 C 126.985 26.400,127.834 25.500,128.761 24.400 C 130.545 22.285,130.835 21.636,129.163 23.500 M220.644 27.400 C 220.973 28.871,221.202 29.190,221.194 28.167 C 221.191 27.745,221.005 27.130,220.782 26.800 C 220.485 26.362,220.448 26.524,220.644 27.400 M124.273 29.700 C 123.071 31.316,121.712 33.540,122.257 33.000 C 122.479 32.780,123.338 31.655,124.165 30.500 C 125.782 28.240,125.877 27.545,124.273 29.700 M221.444 31.000 C 221.773 32.471,222.002 32.790,221.994 31.767 C 221.991 31.345,221.805 30.730,221.582 30.400 C 221.285 29.962,221.248 30.124,221.444 31.000 M334.036 30.600 C 334.036 30.820,334.470 31.810,335.000 32.800 C 335.530 33.790,335.964 34.420,335.964 34.200 C 335.964 33.980,335.530 32.990,335.000 32.000 C 334.470 31.010,334.036 30.380,334.036 30.600 M370.467 31.620 C 370.701 32.292,370.967 32.767,371.057 32.676 C 371.256 32.478,370.501 30.400,370.231 30.400 C 370.127 30.400,370.233 30.949,370.467 31.620 M224.400 37.200 C 225.097 38.080,225.757 38.800,225.867 38.800 C 225.977 38.800,225.497 38.080,224.800 37.200 C 224.103 36.320,223.443 35.600,223.333 35.600 C 223.223 35.600,223.703 36.320,224.400 37.200 M373.454 38.871 C 374.357 41.201,375.123 42.011,376.362 41.946 L 377.400 41.891 376.400 41.707 C 374.996 41.449,374.608 41.042,373.995 39.186 C 373.700 38.291,373.307 37.466,373.121 37.351 C 372.935 37.236,373.085 37.921,373.454 38.871 M380.400 42.911 C 380.400 42.987,380.985 43.478,381.700 44.001 C 382.504 44.590,382.784 44.687,382.433 44.255 C 381.900 43.599,380.400 42.607,380.400 42.911 M228.856 45.200 C 228.856 45.530,229.011 46.160,229.200 46.600 C 229.417 47.104,229.544 47.178,229.544 46.800 C 229.544 46.470,229.389 45.840,229.200 45.400 C 228.983 44.896,228.856 44.822,228.856 45.200 M385.200 47.600 C 385.897 48.480,386.557 49.200,386.667 49.200 C 386.777 49.200,386.297 48.480,385.600 47.600 C 384.903 46.720,384.243 46.000,384.133 46.000 C 384.023 46.000,384.503 46.720,385.200 47.600 M387.409 50.626 C 387.781 51.301,388.441 52.291,388.876 52.826 L 389.667 53.800 388.991 52.574 C 388.619 51.899,387.959 50.909,387.524 50.374 L 386.733 49.400 387.409 50.626 M230.644 52.200 C 230.973 53.671,231.202 53.990,231.194 52.967 C 231.191 52.545,231.005 51.930,230.782 51.600 C 230.485 51.162,230.448 51.324,230.644 52.200 M345.212 55.649 C 345.193 56.052,346.820 59.600,347.024 59.600 C 347.127 59.600,346.948 58.972,346.627 58.204 C 345.955 56.595,345.230 55.286,345.212 55.649 M231.800 61.860 C 231.800 65.105,231.914 67.229,232.053 66.580 C 232.386 65.023,232.391 58.052,232.060 56.880 C 231.917 56.374,231.800 58.614,231.800 61.860 M395.444 64.200 C 395.773 65.671,396.002 65.990,395.994 64.967 C 395.991 64.545,395.805 63.930,395.582 63.600 C 395.285 63.162,395.248 63.324,395.444 64.200 M346.029 65.454 C 345.573 66.034,345.205 66.709,345.212 66.954 C 345.219 67.199,345.424 67.040,345.668 66.600 C 345.912 66.160,346.385 65.485,346.718 65.100 C 347.051 64.715,347.219 64.400,347.091 64.400 C 346.963 64.400,346.485 64.874,346.029 65.454 M344.652 68.900 C 344.341 70.061,344.401 73.517,344.754 74.783 C 344.905 75.324,345.022 74.019,345.014 71.883 C 344.999 67.615,344.998 67.610,344.652 68.900 M396.509 70.000 C 396.509 70.990,396.587 71.395,396.682 70.900 C 396.778 70.405,396.778 69.595,396.682 69.100 C 396.587 68.605,396.509 69.010,396.509 70.000 M396.893 73.600 C 396.893 74.370,396.975 74.685,397.076 74.300 C 397.176 73.915,397.176 73.285,397.076 72.900 C 396.975 72.515,396.893 72.830,396.893 73.600 M99.400 75.600 C 99.059 76.260,98.869 76.800,98.979 76.800 C 99.089 76.800,99.459 76.260,99.800 75.600 C 100.141 74.940,100.331 74.400,100.221 74.400 C 100.111 74.400,99.741 74.940,99.400 75.600 M232.400 75.853 C 232.400 76.434,235.962 80.259,235.982 79.700 C 235.992 79.425,235.828 79.200,235.618 79.200 C 235.408 79.200,234.598 78.364,233.818 77.342 C 233.038 76.321,232.400 75.651,232.400 75.853 M345.256 77.600 C 345.256 77.930,345.411 78.560,345.600 79.000 C 345.817 79.504,345.944 79.578,345.944 79.200 C 345.944 78.870,345.789 78.240,345.600 77.800 C 345.383 77.296,345.256 77.222,345.256 77.600 M397.301 82.200 C 397.305 83.080,397.387 83.393,397.483 82.895 C 397.579 82.398,397.575 81.678,397.475 81.295 C 397.375 80.913,397.296 81.320,397.301 82.200 M239.887 83.363 C 241.255 84.616,242.828 86.216,243.382 86.920 C 243.937 87.624,244.393 88.057,244.396 87.883 C 244.402 87.391,240.804 83.664,239.010 82.306 C 238.125 81.635,238.519 82.111,239.887 83.363 M396.893 90.400 C 396.893 91.170,396.975 91.485,397.076 91.100 C 397.176 90.715,397.176 90.085,397.076 89.700 C 396.975 89.315,396.893 89.630,396.893 90.400 M351.164 90.733 C 351.380 91.136,351.871 91.721,352.255 92.033 C 352.687 92.384,352.590 92.104,352.001 91.300 C 350.951 89.865,350.557 89.598,351.164 90.733 M245.693 92.400 C 245.693 93.170,245.775 93.485,245.876 93.100 C 245.976 92.715,245.976 92.085,245.876 91.700 C 245.775 91.315,245.693 91.630,245.693 92.400 M93.472 93.004 C 93.327 93.882,93.231 95.500,93.258 96.600 C 93.298 98.256,93.365 98.050,93.648 95.400 C 94.016 91.949,93.903 90.398,93.472 93.004 M396.501 93.400 C 396.505 94.280,396.587 94.593,396.683 94.095 C 396.779 93.598,396.775 92.878,396.675 92.495 C 396.575 92.113,396.496 92.520,396.501 93.400 M355.400 95.600 C 356.928 97.140,358.269 98.400,358.379 98.400 C 358.489 98.400,357.328 97.140,355.800 95.600 C 354.272 94.060,352.931 92.800,352.821 92.800 C 352.711 92.800,353.872 94.060,355.400 95.600 M244.580 95.632 C 244.433 95.870,243.747 96.410,243.056 96.831 C 242.365 97.252,242.022 97.598,242.294 97.599 C 242.806 97.600,245.613 95.232,245.124 95.212 C 244.972 95.205,244.727 95.395,244.580 95.632 M395.646 97.667 C 395.621 98.034,395.496 98.664,395.370 99.067 C 395.152 99.762,395.163 99.763,395.597 99.087 C 395.848 98.696,395.973 98.066,395.873 97.687 C 395.711 97.068,395.688 97.066,395.646 97.667 M239.944 98.424 L 239.000 99.247 240.200 98.545 C 241.779 97.620,241.803 97.600,241.311 97.600 C 241.079 97.600,240.464 97.971,239.944 98.424 M238.834 100.323 C 238.813 100.907,239.426 101.870,240.500 102.940 C 241.568 104.003,241.710 104.094,240.883 103.182 C 240.159 102.384,239.409 101.207,239.217 100.566 C 238.913 99.549,238.864 99.518,238.834 100.323 M91.822 104.900 C 91.472 106.046,91.211 108.123,91.447 107.887 C 91.742 107.591,92.371 104.400,92.134 104.400 C 92.046 104.400,91.906 104.625,91.822 104.900 M242.432 105.622 C 242.414 105.963,241.770 106.854,241.000 107.600 C 240.230 108.346,239.614 109.237,239.632 109.578 C 239.659 110.116,239.692 110.119,239.880 109.600 C 239.999 109.270,240.726 108.341,241.494 107.537 C 242.262 106.732,242.795 105.832,242.677 105.537 C 242.518 105.137,242.455 105.158,242.432 105.622 M391.334 114.800 C 391.334 116.450,391.405 117.125,391.491 116.300 C 391.578 115.475,391.578 114.125,391.491 113.300 C 391.405 112.475,391.334 113.150,391.334 114.800 M89.849 114.215 C 89.712 114.573,89.618 115.256,89.641 115.733 C 89.667 116.281,89.803 116.086,90.010 115.203 C 90.360 113.716,90.265 113.133,89.849 114.215 M361.468 115.759 C 361.320 116.833,361.224 118.452,361.253 119.356 C 361.286 120.379,361.435 119.792,361.648 117.800 C 362.027 114.250,361.889 112.687,361.468 115.759 M240.274 116.033 C 239.655 116.895,239.228 117.600,239.327 117.600 C 239.603 117.600,241.699 114.766,241.540 114.607 C 241.463 114.530,240.893 115.172,240.274 116.033 M88.849 119.000 C 88.816 119.440,88.696 120.250,88.583 120.800 L 88.377 121.800 88.806 120.819 C 89.042 120.279,89.161 119.469,89.072 119.019 C 88.913 118.221,88.907 118.221,88.849 119.000 M238.481 124.000 C 238.431 126.750,238.296 129.450,238.183 130.000 L 237.977 131.000 238.400 130.034 C 238.648 129.468,238.771 126.986,238.698 124.034 L 238.574 119.000 238.481 124.000 M87.829 123.829 C 87.681 124.415,87.638 124.972,87.732 125.066 C 87.827 125.160,88.024 124.758,88.171 124.171 C 88.319 123.585,88.362 123.028,88.268 122.934 C 88.173 122.840,87.976 123.242,87.829 123.829 M360.509 126.400 C 360.509 127.390,360.587 127.795,360.682 127.300 C 360.778 126.805,360.778 125.995,360.682 125.500 C 360.587 125.005,360.509 125.410,360.509 126.400 M391.913 142.400 C 392.020 150.210,392.173 156.675,392.254 156.767 C 392.493 157.040,392.317 141.090,392.006 134.400 C 391.839 130.780,391.800 134.110,391.913 142.400 M359.400 134.400 C 359.245 135.528,359.202 136.536,359.306 136.639 C 359.409 136.742,359.616 135.900,359.767 134.767 C 359.917 133.634,359.959 132.626,359.861 132.528 C 359.763 132.429,359.555 133.272,359.400 134.400 M228.000 138.000 C 226.616 138.291,226.614 138.295,227.800 138.341 C 228.460 138.367,229.270 138.213,229.600 138.000 C 230.266 137.570,230.045 137.570,228.000 138.000 M223.300 138.676 C 223.685 138.776,224.315 138.776,224.700 138.676 C 225.085 138.575,224.770 138.493,224.000 138.493 C 223.230 138.493,222.915 138.575,223.300 138.676 M212.657 139.148 C 212.248 139.309,213.688 139.378,215.857 139.301 C 221.406 139.105,222.113 138.914,217.400 138.883 C 215.200 138.868,213.066 138.988,212.657 139.148 M358.656 140.084 C 358.521 140.588,358.430 141.540,358.453 142.200 C 358.481 143.028,358.597 142.784,358.826 141.413 C 359.176 139.323,359.074 138.526,358.656 140.084 M209.853 142.100 L 209.133 143.400 209.958 142.400 C 210.689 141.513,211.014 140.800,210.686 140.800 C 210.624 140.800,210.249 141.385,209.853 142.100 M80.649 144.615 C 80.512 144.973,80.415 145.566,80.434 145.933 C 80.453 146.300,80.627 146.069,80.821 145.420 C 81.198 144.158,81.065 143.533,80.649 144.615 M357.853 146.436 C 357.714 147.131,357.624 148.442,357.653 149.350 C 357.691 150.569,357.790 150.270,358.028 148.209 C 358.370 145.258,358.277 144.316,357.853 146.436 M83.829 148.629 C 83.681 149.215,83.651 149.784,83.761 149.894 C 83.871 150.004,84.081 149.615,84.229 149.029 C 84.376 148.442,84.406 147.873,84.296 147.763 C 84.186 147.653,83.976 148.042,83.829 148.629 M84.847 149.633 C 84.873 150.605,85.037 151.940,85.211 152.600 C 85.402 153.328,85.441 152.698,85.309 151.000 C 85.061 147.821,84.776 146.976,84.847 149.633 M79.456 149.284 C 79.321 149.788,79.227 150.560,79.246 151.000 C 79.265 151.440,79.445 151.098,79.646 150.240 C 80.036 148.578,79.870 147.740,79.456 149.284 M83.324 153.800 C 83.326 155.120,83.401 155.612,83.490 154.893 C 83.579 154.174,83.577 153.094,83.486 152.493 C 83.395 151.892,83.322 152.480,83.324 153.800 M357.293 152.800 C 357.293 153.570,357.375 153.885,357.476 153.500 C 357.576 153.115,357.576 152.485,357.476 152.100 C 357.375 151.715,357.293 152.030,357.293 152.800 M204.846 154.867 C 204.821 155.234,204.696 155.864,204.570 156.267 C 204.352 156.962,204.363 156.963,204.797 156.287 C 205.048 155.896,205.173 155.266,205.073 154.887 C 204.911 154.268,204.888 154.266,204.846 154.867 M79.287 156.800 C 79.283 157.350,79.424 158.250,79.600 158.800 C 80.031 160.144,80.031 158.692,79.600 157.000 C 79.326 155.922,79.294 155.902,79.287 156.800 M356.909 158.000 C 356.909 158.990,356.987 159.395,357.082 158.900 C 357.178 158.405,357.178 157.595,357.082 157.100 C 356.987 156.605,356.909 157.010,356.909 158.000 M86.101 159.400 C 86.105 160.280,86.187 160.593,86.283 160.095 C 86.379 159.598,86.375 158.878,86.275 158.495 C 86.175 158.113,86.096 158.520,86.101 159.400 M203.850 159.250 C 203.517 160.917,203.840 161.240,204.200 159.600 C 204.352 158.909,204.393 158.259,204.291 158.158 C 204.189 158.056,203.991 158.547,203.850 159.250 M356.509 161.600 C 356.509 162.590,356.587 162.995,356.682 162.500 C 356.778 162.005,356.778 161.195,356.682 160.700 C 356.587 160.205,356.509 160.610,356.509 161.600 M203.056 163.284 C 202.921 163.788,202.827 164.560,202.846 165.000 C 202.865 165.440,203.045 165.098,203.246 164.240 C 203.636 162.578,203.470 161.740,203.056 163.284 M202.806 167.833 C 202.809 168.255,202.995 168.870,203.218 169.200 C 203.515 169.638,203.552 169.476,203.356 168.600 C 203.027 167.129,202.798 166.810,202.806 167.833 M355.868 169.359 C 355.720 170.433,355.624 172.052,355.653 172.956 C 355.686 173.979,355.835 173.392,356.048 171.400 C 356.427 167.850,356.289 166.287,355.868 169.359 M85.960 172.200 C 86.634 173.505,87.188 174.228,87.185 173.800 C 87.183 173.580,86.814 172.950,86.364 172.400 C 85.821 171.736,85.685 171.669,85.960 172.200 M88.931 180.600 C 88.933 182.140,89.005 182.721,89.092 181.891 C 89.179 181.061,89.177 179.801,89.089 179.091 C 89.000 178.381,88.929 179.060,88.931 180.600 M355.293 179.200 C 355.293 179.970,355.375 180.285,355.476 179.900 C 355.576 179.515,355.576 178.885,355.476 178.500 C 355.375 178.115,355.293 178.430,355.293 179.200 M354.937 183.800 C 354.939 185.560,355.009 186.230,355.093 185.289 C 355.178 184.349,355.177 182.909,355.091 182.089 C 355.005 181.270,354.936 182.040,354.937 183.800 M210.364 181.933 C 210.580 182.336,211.071 182.921,211.455 183.233 C 211.887 183.584,211.790 183.304,211.201 182.500 C 210.151 181.065,209.757 180.798,210.364 181.933 M89.309 187.200 C 89.309 188.190,89.387 188.595,89.482 188.100 C 89.578 187.605,89.578 186.795,89.482 186.300 C 89.387 185.805,89.309 186.210,89.309 187.200 M217.633 185.744 C 217.725 185.823,218.340 186.008,219.000 186.156 C 219.876 186.352,220.038 186.315,219.600 186.018 C 219.060 185.653,217.232 185.398,217.633 185.744 M392.567 193.800 C 392.567 197.980,392.626 199.636,392.698 197.479 C 392.771 195.323,392.770 191.903,392.698 189.879 C 392.625 187.856,392.566 189.620,392.567 193.800 M354.501 189.400 C 354.505 190.280,354.587 190.593,354.683 190.095 C 354.779 189.598,354.775 188.878,354.675 188.495 C 354.575 188.113,354.496 188.520,354.501 189.400 M233.800 190.400 C 234.240 190.589,234.870 190.744,235.200 190.744 C 235.578 190.744,235.504 190.617,235.000 190.400 C 234.560 190.211,233.930 190.056,233.600 190.056 C 233.222 190.056,233.296 190.183,233.800 190.400 M88.924 192.600 C 88.926 193.920,89.001 194.412,89.090 193.693 C 89.179 192.974,89.177 191.894,89.086 191.293 C 88.995 190.692,88.922 191.280,88.924 192.600 M237.233 191.344 C 237.325 191.423,237.940 191.608,238.600 191.756 C 239.476 191.952,239.638 191.915,239.200 191.618 C 238.660 191.253,236.832 190.998,237.233 191.344 M240.833 192.144 C 240.925 192.223,241.540 192.408,242.200 192.556 C 243.076 192.752,243.238 192.715,242.800 192.418 C 242.260 192.053,240.432 191.798,240.833 192.144 M245.600 193.193 C 246.588 193.516,249.889 193.735,249.567 193.456 C 249.475 193.376,248.320 193.211,247.000 193.088 C 245.509 192.949,244.979 192.989,245.600 193.193 M353.822 196.022 C 353.666 197.810,353.623 199.356,353.726 199.459 C 353.829 199.562,354.042 198.185,354.200 196.400 C 354.358 194.615,354.401 193.068,354.297 192.963 C 354.192 192.858,353.978 194.235,353.822 196.022 M255.300 194.287 C 255.905 194.378,256.895 194.378,257.500 194.287 C 258.105 194.195,257.610 194.120,256.400 194.120 C 255.190 194.120,254.695 194.195,255.300 194.287 M263.233 194.949 C 263.325 195.031,264.300 195.207,265.400 195.341 C 266.746 195.505,267.139 195.465,266.600 195.220 C 265.839 194.874,262.883 194.636,263.233 194.949 M270.600 196.000 C 271.260 196.168,272.340 196.306,273.000 196.307 C 274.009 196.308,273.945 196.255,272.600 195.977 C 270.574 195.558,268.937 195.577,270.600 196.000 M277.233 196.944 C 277.325 197.023,278.390 197.189,279.600 197.312 C 280.969 197.451,281.498 197.408,281.000 197.196 C 280.233 196.870,276.889 196.647,277.233 196.944 M283.233 197.744 C 283.325 197.824,284.210 197.996,285.200 198.127 C 286.402 198.286,286.734 198.247,286.200 198.010 C 285.436 197.672,282.886 197.443,283.233 197.744 M87.829 199.029 C 87.681 199.615,87.638 200.172,87.732 200.266 C 87.827 200.360,88.024 199.958,88.171 199.371 C 88.319 198.785,88.362 198.228,88.268 198.134 C 88.173 198.040,87.976 198.442,87.829 199.029 M296.900 199.876 C 297.285 199.976,297.915 199.976,298.300 199.876 C 298.685 199.775,298.370 199.693,297.600 199.693 C 296.830 199.693,296.515 199.775,296.900 199.876 M301.633 200.543 C 301.725 200.621,302.430 200.801,303.200 200.942 C 304.185 201.123,304.422 201.082,304.000 200.806 C 303.458 200.450,301.237 200.203,301.633 200.543 M306.800 201.600 C 307.350 201.776,308.160 201.920,308.600 201.920 C 309.233 201.920,309.192 201.854,308.400 201.600 C 307.850 201.424,307.040 201.280,306.600 201.280 C 305.967 201.280,306.008 201.346,306.800 201.600 M353.022 203.422 C 352.872 204.225,352.828 204.962,352.926 205.060 C 353.024 205.157,353.227 204.581,353.378 203.778 C 353.528 202.975,353.572 202.238,353.474 202.140 C 353.376 202.043,353.173 202.619,353.022 203.422 M311.633 202.547 C 311.725 202.628,312.520 202.804,313.400 202.938 C 314.515 203.107,314.758 203.071,314.200 202.819 C 313.432 202.471,311.290 202.244,311.633 202.547 M316.400 203.600 C 317.768 204.038,318.819 204.038,317.800 203.600 C 317.360 203.411,316.640 203.262,316.200 203.268 C 315.557 203.277,315.596 203.343,316.400 203.600 M320.400 204.400 C 320.950 204.576,321.760 204.720,322.200 204.720 C 322.833 204.720,322.792 204.654,322.000 204.400 C 321.450 204.224,320.640 204.080,320.200 204.080 C 319.567 204.080,319.608 204.146,320.400 204.400 M325.700 205.476 C 326.085 205.576,326.715 205.576,327.100 205.476 C 327.485 205.375,327.170 205.293,326.400 205.293 C 325.630 205.293,325.315 205.375,325.700 205.476 M330.833 206.144 C 330.925 206.224,331.810 206.396,332.800 206.527 C 334.002 206.686,334.334 206.647,333.800 206.410 C 333.036 206.072,330.486 205.843,330.833 206.144 M337.800 207.200 C 338.460 207.368,339.540 207.506,340.200 207.507 C 341.209 207.508,341.145 207.455,339.800 207.177 C 337.774 206.758,336.137 206.777,337.800 207.200 M351.000 208.000 L 349.800 208.305 350.876 208.353 C 351.468 208.379,352.064 208.220,352.200 208.000 C 352.336 207.780,352.392 207.621,352.324 207.647 C 352.256 207.673,351.660 207.832,351.000 208.000 M84.153 208.500 C 82.776 210.836,82.686 211.035,83.387 210.200 C 84.200 209.232,84.900 208.000,84.638 208.000 C 84.533 208.000,84.315 208.225,84.153 208.500 M345.907 208.290 C 346.626 208.379,347.706 208.377,348.307 208.286 C 348.908 208.195,348.320 208.122,347.000 208.124 C 345.680 208.126,345.188 208.201,345.907 208.290 M78.814 215.390 L 76.228 218.200 78.996 215.515 C 80.518 214.038,81.681 212.773,81.581 212.705 C 81.482 212.636,80.236 213.844,78.814 215.390 M74.200 219.444 L 72.600 220.876 74.300 219.604 C 75.763 218.510,76.291 217.983,75.900 218.006 C 75.845 218.009,75.080 218.656,74.200 219.444 M392.068 223.600 C 392.026 224.590,391.906 226.120,391.802 227.000 L 391.612 228.600 392.022 227.000 C 392.248 226.120,392.368 224.590,392.288 223.600 L 392.144 221.800 392.068 223.600 M65.800 225.844 L 64.200 227.276 65.900 226.004 C 67.363 224.910,67.891 224.383,67.500 224.406 C 67.445 224.409,66.680 225.056,65.800 225.844 M58.567 231.429 L 57.000 232.858 58.700 231.562 C 60.253 230.378,60.632 230.000,60.267 230.000 C 60.193 230.000,59.428 230.643,58.567 231.429 M53.400 235.444 L 51.800 236.876 53.500 235.604 C 54.963 234.510,55.491 233.983,55.100 234.006 C 55.045 234.009,54.280 234.656,53.400 235.444 M390.854 236.400 C 390.819 236.950,390.696 237.850,390.583 238.400 L 390.377 239.400 390.807 238.415 C 391.043 237.874,391.165 236.974,391.078 236.415 L 390.920 235.400 390.854 236.400 M45.400 241.844 L 43.800 243.276 45.500 242.004 C 46.963 240.910,47.491 240.383,47.100 240.406 C 47.045 240.409,46.280 241.056,45.400 241.844 M41.000 245.452 L 38.600 247.685 41.100 245.603 C 43.274 243.792,43.897 243.171,43.500 243.210 C 43.445 243.215,42.320 244.224,41.000 245.452 M360.000 246.000 L 356.200 246.247 359.600 246.288 C 361.470 246.311,363.900 246.190,365.000 246.018 C 367.523 245.625,365.859 245.619,360.000 246.000 M375.000 245.998 C 376.212 246.309,380.675 246.523,380.367 246.256 C 380.275 246.177,378.760 246.017,377.000 245.902 C 375.185 245.782,374.319 245.824,375.000 245.998 M350.500 246.687 C 351.105 246.778,352.095 246.778,352.700 246.687 C 353.305 246.595,352.810 246.520,351.600 246.520 C 350.390 246.520,349.895 246.595,350.500 246.687 M341.900 247.095 C 343.055 247.176,344.945 247.176,346.100 247.095 C 347.255 247.014,346.310 246.948,344.000 246.948 C 341.690 246.948,340.745 247.014,341.900 247.095 M334.311 247.493 C 335.251 247.578,336.691 247.577,337.511 247.491 C 338.330 247.405,337.560 247.336,335.800 247.337 C 334.040 247.339,333.370 247.409,334.311 247.493 M298.000 248.000 L 288.600 248.222 297.200 248.257 C 301.930 248.276,308.680 248.169,312.200 248.018 L 318.600 247.744 313.000 247.761 C 309.920 247.770,303.170 247.878,298.000 248.000 M36.654 249.033 C 36.023 249.587,35.587 250.120,35.683 250.216 C 35.779 250.313,36.374 249.854,37.004 249.196 C 38.396 247.743,38.216 247.659,36.654 249.033 M265.420 248.356 C 266.119 249.011,272.860 254.000,273.045 254.000 C 273.370 254.000,270.663 251.788,268.252 250.084 L 265.903 248.424 271.252 248.299 L 276.600 248.175 270.820 248.087 C 267.432 248.036,265.197 248.147,265.420 248.356 M33.381 252.100 L 31.800 253.800 33.500 252.219 C 35.081 250.748,35.384 250.400,35.081 250.400 C 35.016 250.400,34.251 251.165,33.381 252.100 M29.280 255.656 C 28.115 256.777,27.225 257.758,27.304 257.837 C 27.383 257.916,28.420 256.995,29.610 255.790 C 32.333 253.033,32.105 252.940,29.280 255.656 M275.600 256.600 C 276.795 257.810,277.863 258.800,277.973 258.800 C 278.083 258.800,277.195 257.810,276.000 256.600 C 274.805 255.390,273.737 254.400,273.627 254.400 C 273.517 254.400,274.405 255.390,275.600 256.600 M106.378 265.900 L 105.000 267.400 106.596 266.000 C 107.473 265.230,108.268 264.555,108.362 264.500 C 108.456 264.445,108.359 264.400,108.145 264.400 C 107.932 264.400,107.137 265.075,106.378 265.900 M16.622 268.375 L 15.044 270.200 16.803 268.514 C 17.770 267.586,18.480 266.765,18.380 266.688 C 18.281 266.612,17.490 267.371,16.622 268.375 M282.856 267.200 C 282.856 267.530,283.011 268.160,283.200 268.600 C 283.417 269.104,283.544 269.178,283.544 268.800 C 283.544 268.470,283.389 267.840,283.200 267.400 C 282.983 266.896,282.856 266.822,282.856 267.200 M102.600 269.046 C 100.869 270.630,100.820 270.712,102.238 269.653 C 103.730 268.540,105.118 267.188,104.749 267.208 C 104.667 267.213,103.700 268.040,102.600 269.046 M110.880 269.800 C 110.880 270.240,111.024 271.050,111.200 271.600 C 111.454 272.392,111.520 272.433,111.520 271.800 C 111.520 271.360,111.376 270.550,111.200 270.000 C 110.946 269.208,110.880 269.167,110.880 269.800 M283.701 273.400 C 283.705 274.280,283.787 274.593,283.883 274.095 C 283.979 273.598,283.975 272.878,283.875 272.495 C 283.775 272.113,283.696 272.520,283.701 273.400 M91.887 276.568 C 89.526 278.202,88.964 278.775,90.706 277.772 C 92.050 276.999,94.356 275.223,94.000 275.236 C 93.890 275.241,92.939 275.840,91.887 276.568 M112.006 276.233 C 112.009 276.875,112.184 277.670,112.395 278.000 C 112.655 278.409,112.699 278.090,112.532 277.000 C 112.229 275.023,111.998 274.686,112.006 276.233 M283.022 279.422 C 282.872 280.225,282.828 280.962,282.926 281.060 C 283.024 281.157,283.227 280.581,283.378 279.778 C 283.528 278.975,283.572 278.238,283.474 278.140 C 283.376 278.043,283.173 278.619,283.022 279.422 M86.500 280.046 C 85.137 280.919,84.695 281.506,85.900 280.843 C 86.818 280.339,88.256 279.227,88.000 279.219 C 87.890 279.216,87.215 279.588,86.500 280.046 M82.100 282.846 C 80.737 283.719,80.295 284.306,81.500 283.643 C 82.418 283.139,83.856 282.027,83.600 282.019 C 83.490 282.016,82.815 282.388,82.100 282.846 M75.284 287.300 C 73.266 288.675,71.612 289.950,71.608 290.134 C 71.603 290.317,72.275 289.950,73.100 289.317 C 73.925 288.684,75.635 287.469,76.900 286.617 C 78.956 285.232,79.473 284.800,79.076 284.800 C 79.008 284.800,77.301 285.925,75.284 287.300 M69.254 293.215 C 69.221 293.837,69.676 294.766,70.429 295.615 L 71.658 297.000 70.665 295.600 C 70.119 294.830,69.591 293.750,69.491 293.200 L 69.309 292.200 69.254 293.215 M121.035 296.660 C 121.235 299.242,121.212 299.342,120.638 298.400 C 119.954 297.278,119.772 297.626,120.414 298.826 C 121.150 300.202,121.600 299.652,121.600 297.378 L 121.600 295.155 122.637 296.278 L 123.673 297.400 122.855 296.164 C 121.126 293.553,120.801 293.642,121.035 296.660 M72.751 298.738 C 73.421 299.585,74.287 300.530,74.674 300.838 C 75.061 301.147,74.590 300.455,73.626 299.300 C 71.606 296.878,70.938 296.449,72.751 298.738 M272.027 301.310 C 270.272 303.253,269.835 303.863,270.960 302.800 C 272.688 301.168,275.461 297.985,275.134 298.010 C 275.060 298.016,273.662 299.501,272.027 301.310 M134.800 301.453 C 134.800 301.787,136.419 304.400,136.626 304.400 C 136.715 304.400,136.412 303.680,135.953 302.800 C 135.170 301.298,134.800 300.865,134.800 301.453 M76.190 302.800 C 76.774 303.570,77.965 305.145,78.838 306.300 C 79.711 307.455,80.509 308.400,80.612 308.400 C 80.895 308.400,78.213 304.812,76.575 303.000 C 75.338 301.630,75.282 301.602,76.190 302.800 M126.947 302.400 C 127.313 302.950,127.818 303.805,128.070 304.300 C 128.614 305.368,129.297 305.449,130.051 304.534 C 130.546 303.933,130.492 303.894,129.500 304.141 C 128.895 304.292,128.394 304.277,128.386 304.108 C 128.378 303.938,127.901 303.260,127.327 302.600 C 126.589 301.752,126.478 301.694,126.947 302.400 M9.600 303.800 C 10.346 304.570,11.047 305.200,11.157 305.200 C 11.267 305.200,10.746 304.570,10.000 303.800 C 9.254 303.030,8.553 302.400,8.443 302.400 C 8.333 302.400,8.854 303.030,9.600 303.800 M135.073 305.200 C 135.204 306.190,135.376 307.075,135.456 307.167 C 135.757 307.514,135.528 304.964,135.190 304.200 C 134.953 303.666,134.914 303.998,135.073 305.200 M267.867 305.126 C 267.505 305.526,267.118 306.471,267.006 307.226 L 266.803 308.600 267.235 307.200 C 267.473 306.430,267.951 305.485,268.296 305.100 C 268.641 304.715,268.834 304.400,268.724 304.400 C 268.614 304.400,268.228 304.727,267.867 305.126 M131.549 306.600 C 131.765 307.040,132.234 307.760,132.593 308.200 L 133.244 309.000 132.851 308.200 C 132.635 307.760,132.166 307.040,131.807 306.600 L 131.156 305.800 131.549 306.600 M14.400 308.212 C 14.400 308.362,14.850 309.019,15.400 309.673 C 15.950 310.327,16.400 310.739,16.400 310.588 C 16.400 310.438,15.950 309.781,15.400 309.127 C 14.850 308.473,14.400 308.061,14.400 308.212 M135.882 309.621 C 136.008 310.599,136.175 311.475,136.255 311.567 C 136.581 311.942,136.360 308.955,136.021 308.421 C 135.784 308.046,135.735 308.470,135.882 309.621 M82.170 310.699 C 82.997 311.854,83.871 312.920,84.112 313.069 C 84.681 313.421,82.022 309.715,81.252 309.082 C 80.929 308.817,81.342 309.545,82.170 310.699 M17.481 312.187 C 17.877 312.731,18.366 313.181,18.570 313.187 C 18.773 313.194,18.517 312.750,18.000 312.200 C 16.801 310.923,16.557 310.918,17.481 312.187 M266.202 315.274 C 266.048 317.543,265.989 319.940,266.069 320.600 C 266.150 321.260,266.357 319.485,266.530 316.655 C 266.702 313.826,266.762 311.429,266.662 311.329 C 266.562 311.229,266.355 313.004,266.202 315.274 M86.575 316.532 C 87.191 317.339,87.776 318.000,87.875 318.000 C 88.153 318.000,86.421 315.660,85.909 315.344 C 85.659 315.189,85.959 315.724,86.575 316.532 M23.401 319.198 C 24.060 319.967,24.645 320.672,24.700 320.765 C 24.755 320.857,24.887 320.846,24.994 320.739 C 25.101 320.633,24.516 319.928,23.695 319.173 L 22.202 317.800 23.401 319.198 M89.656 320.618 C 90.374 321.618,91.230 322.653,91.559 322.918 C 91.887 323.183,91.379 322.365,90.430 321.100 C 88.387 318.378,87.772 317.995,89.656 320.618 M26.229 322.438 C 26.873 323.229,27.481 323.808,27.579 323.725 C 27.678 323.642,27.151 322.995,26.409 322.287 L 25.058 321.000 26.229 322.438 M93.360 325.458 C 94.140 326.526,95.426 328.120,96.218 329.000 C 97.009 329.880,96.524 329.101,95.139 327.269 C 93.755 325.436,92.469 323.842,92.282 323.727 C 92.094 323.611,92.580 324.390,93.360 325.458 M29.200 325.800 C 29.946 326.570,30.647 327.200,30.757 327.200 C 30.867 327.200,30.346 326.570,29.600 325.800 C 28.854 325.030,28.153 324.400,28.043 324.400 C 27.933 324.400,28.454 325.030,29.200 325.800 M148.000 326.949 C 148.000 327.381,149.589 330.400,149.816 330.400 C 149.926 330.400,149.630 329.635,149.159 328.700 C 148.232 326.861,148.000 326.511,148.000 326.949 M32.383 329.300 C 33.364 330.345,34.219 331.200,34.283 331.200 C 34.584 331.200,34.266 330.841,32.500 329.183 L 30.600 327.400 32.383 329.300 M100.413 333.790 C 101.850 335.336,104.910 338.494,107.213 340.809 C 109.516 343.124,110.134 343.664,108.586 342.009 C 107.038 340.354,103.978 337.196,101.786 334.990 C 99.594 332.785,98.976 332.245,100.413 333.790 M44.400 341.800 C 48.906 346.310,52.683 350.000,52.793 350.000 C 52.903 350.000,49.306 346.310,44.800 341.800 C 40.294 337.290,36.517 333.600,36.407 333.600 C 36.297 333.600,39.894 337.290,44.400 341.800 M151.818 335.300 C 151.968 335.795,152.255 336.376,152.456 336.591 C 152.657 336.806,152.619 336.401,152.372 335.691 C 151.865 334.238,151.397 333.908,151.818 335.300 M265.720 339.600 C 265.720 340.810,265.795 341.305,265.887 340.700 C 265.978 340.095,265.978 339.105,265.887 338.500 C 265.795 337.895,265.720 338.390,265.720 339.600 M265.331 344.600 C 265.333 346.140,265.405 346.721,265.492 345.891 C 265.579 345.061,265.577 343.801,265.489 343.091 C 265.400 342.381,265.329 343.060,265.331 344.600 M120.588 354.787 C 122.552 356.761,124.219 358.314,124.293 358.241 C 124.448 358.086,117.532 351.200,117.222 351.200 C 117.109 351.200,118.624 352.814,120.588 354.787 M264.465 353.000 C 264.425 353.880,264.306 355.320,264.202 356.200 L 264.012 357.800 264.423 356.200 C 264.648 355.320,264.767 353.880,264.686 353.000 L 264.540 351.400 264.465 353.000 M56.047 353.100 C 56.073 353.265,57.288 354.475,58.747 355.789 L 61.400 358.178 58.812 355.489 C 56.181 352.756,55.964 352.569,56.047 353.100 M158.406 357.233 C 158.409 357.765,158.589 358.470,158.806 358.800 C 159.082 359.222,159.123 358.985,158.942 358.000 C 158.625 356.275,158.398 355.949,158.406 357.233 M63.164 359.735 C 63.749 360.463,66.000 362.177,66.000 361.894 C 66.000 361.806,65.235 361.126,64.300 360.383 C 63.365 359.640,62.854 359.348,63.164 359.735 M128.000 361.800 C 128.746 362.570,129.447 363.200,129.557 363.200 C 129.667 363.200,129.146 362.570,128.400 361.800 C 127.654 361.030,126.953 360.400,126.843 360.400 C 126.733 360.400,127.254 361.030,128.000 361.800 M263.440 363.142 C 263.281 364.540,263.237 365.770,263.342 365.876 C 263.608 366.141,264.127 361.779,263.907 361.128 C 263.810 360.838,263.599 361.744,263.440 363.142 M67.446 363.272 C 69.219 364.611,69.562 364.717,68.216 363.511 C 67.547 362.912,66.841 362.417,66.646 362.411 C 66.451 362.405,66.811 362.792,67.446 363.272 M131.583 364.900 C 133.241 366.666,133.600 366.984,133.600 366.683 C 133.600 366.619,132.745 365.764,131.700 364.783 L 129.800 363.000 131.583 364.900 M160.262 364.400 C 160.398 365.170,160.662 366.070,160.848 366.400 C 161.052 366.761,161.088 366.443,160.938 365.600 C 160.802 364.830,160.538 363.930,160.352 363.600 C 160.148 363.239,160.112 363.557,160.262 364.400 M70.000 364.946 C 70.000 365.056,70.540 365.530,71.200 366.000 C 71.860 366.470,72.400 366.764,72.400 366.654 C 72.400 366.544,71.860 366.070,71.200 365.600 C 70.540 365.130,70.000 364.836,70.000 364.946 M161.344 371.800 C 161.347 375.163,161.413 375.714,161.625 374.140 C 161.778 373.007,161.776 371.027,161.622 369.740 C 161.390 367.807,161.342 368.166,161.344 371.800 M137.000 369.773 C 138.100 370.792,139.540 371.995,140.200 372.446 L 141.400 373.266 140.348 372.333 C 139.769 371.820,138.329 370.617,137.148 369.659 L 135.000 367.919 137.000 369.773 M75.800 369.007 C 76.240 369.366,76.960 369.835,77.400 370.051 L 78.200 370.444 77.400 369.793 C 76.960 369.434,76.240 368.965,75.800 368.749 L 75.000 368.356 75.800 369.007 M262.893 370.400 C 262.893 371.170,262.975 371.485,263.076 371.100 C 263.176 370.715,263.176 370.085,263.076 369.700 C 262.975 369.315,262.893 369.630,262.893 370.400 M262.493 373.200 C 262.493 373.970,262.575 374.285,262.676 373.900 C 262.776 373.515,262.776 372.885,262.676 372.500 C 262.575 372.115,262.493 372.430,262.493 373.200 M83.400 373.807 C 83.840 374.166,84.560 374.635,85.000 374.851 L 85.800 375.244 85.000 374.593 C 84.560 374.234,83.840 373.765,83.400 373.549 L 82.600 373.156 83.400 373.807 M160.400 376.790 C 160.070 376.979,159.170 377.318,158.400 377.544 L 157.000 377.955 158.600 377.731 C 159.480 377.608,160.464 377.258,160.786 376.953 C 161.440 376.335,161.300 376.276,160.400 376.790 M261.646 377.667 C 261.621 378.034,261.496 378.664,261.370 379.067 C 261.152 379.762,261.163 379.763,261.597 379.087 C 261.848 378.696,261.973 378.066,261.873 377.687 C 261.711 377.068,261.688 377.066,261.646 377.667 M109.200 389.274 C 110.102 390.165,115.367 393.794,115.077 393.325 C 114.939 393.101,113.425 391.964,111.713 390.799 C 110.001 389.634,108.870 388.948,109.200 389.274 M120.200 397.007 C 120.640 397.366,121.360 397.835,121.800 398.051 L 122.600 398.444 121.800 397.793 C 121.360 397.434,120.640 396.965,120.200 396.749 L 119.400 396.356 120.200 397.007 M124.600 399.807 C 125.040 400.166,125.760 400.635,126.200 400.851 L 127.000 401.244 126.200 400.593 C 125.760 400.234,125.040 399.765,124.600 399.549 L 123.800 399.156 124.600 399.807 M254.249 401.815 C 254.112 402.173,254.015 402.766,254.034 403.133 C 254.053 403.500,254.227 403.269,254.421 402.620 C 254.798 401.358,254.665 400.733,254.249 401.815 M129.000 402.607 C 129.440 402.966,130.160 403.435,130.600 403.651 L 131.400 404.044 130.600 403.393 C 130.160 403.034,129.440 402.565,129.000 402.349 L 128.200 401.956 129.000 402.607 M133.400 405.407 C 133.840 405.766,134.560 406.235,135.000 406.451 L 135.800 406.844 135.000 406.193 C 134.560 405.834,133.840 405.365,133.400 405.149 L 132.600 404.756 133.400 405.407 M253.254 405.867 C 253.225 406.344,253.096 407.064,252.970 407.467 C 252.752 408.161,252.764 408.162,253.196 407.488 C 253.447 407.097,253.575 406.377,253.481 405.888 C 253.309 405.001,253.309 405.001,253.254 405.867 M137.800 408.207 C 138.240 408.566,138.960 409.035,139.400 409.251 L 140.200 409.644 139.400 408.993 C 138.960 408.634,138.240 408.165,137.800 407.949 L 137.000 407.556 137.800 408.207 M252.233 411.633 C 252.083 412.766,252.041 413.774,252.139 413.872 C 252.237 413.971,252.445 413.128,252.600 412.000 C 252.755 410.872,252.798 409.864,252.694 409.761 C 252.591 409.658,252.384 410.500,252.233 411.633 M149.352 416.417 C 150.646 417.594,151.944 419.107,152.237 419.779 C 152.567 420.536,152.775 420.731,152.784 420.291 C 152.802 419.482,150.052 416.358,148.225 415.112 C 147.551 414.653,148.059 415.240,149.352 416.417 " stroke="none" fill="#a0a0a0" fill-rule="evenodd"></path><path id="path3" d="M231.293 71.200 C 231.293 71.970,231.375 72.285,231.476 71.900 C 231.576 71.515,231.576 70.885,231.476 70.500 C 231.375 70.115,231.293 70.430,231.293 71.200 M391.309 119.200 C 391.309 120.190,391.387 120.595,391.482 120.100 C 391.578 119.605,391.578 118.795,391.482 118.300 C 391.387 117.805,391.309 118.210,391.309 119.200 M391.714 141.400 C 391.717 142.500,391.795 142.903,391.887 142.295 C 391.979 141.686,391.977 140.786,391.882 140.295 C 391.787 139.803,391.711 140.300,391.714 141.400 M392.142 160.200 C 392.141 162.180,392.208 163.040,392.292 162.112 C 392.376 161.184,392.377 159.564,392.295 158.512 C 392.212 157.460,392.143 158.220,392.142 160.200 M89.293 184.400 C 89.293 185.170,89.375 185.485,89.476 185.100 C 89.576 184.715,89.576 184.085,89.476 183.700 C 89.375 183.315,89.293 183.630,89.293 184.400 M392.124 219.800 C 392.126 221.120,392.201 221.612,392.290 220.893 C 392.379 220.174,392.377 219.094,392.286 218.493 C 392.195 217.892,392.122 218.480,392.124 219.800 M330.900 247.476 C 331.285 247.576,331.915 247.576,332.300 247.476 C 332.685 247.375,332.370 247.293,331.600 247.293 C 330.830 247.293,330.515 247.375,330.900 247.476 M303.500 247.889 C 304.215 247.978,305.385 247.978,306.100 247.889 C 306.815 247.801,306.230 247.728,304.800 247.728 C 303.370 247.728,302.785 247.801,303.500 247.889 M279.519 248.298 C 281.344 248.372,284.224 248.372,285.919 248.297 C 287.614 248.222,286.120 248.161,282.600 248.162 C 279.080 248.162,277.694 248.224,279.519 248.298 M134.493 302.000 C 134.493 302.770,134.575 303.085,134.676 302.700 C 134.776 302.315,134.776 301.685,134.676 301.300 C 134.575 300.915,134.493 301.230,134.493 302.000 M101.183 334.900 C 102.841 336.666,103.200 336.984,103.200 336.683 C 103.200 336.619,102.345 335.764,101.300 334.783 L 99.400 333.000 101.183 334.900 " stroke="none" fill="#7c7c7c" fill-rule="evenodd"></path><path id="path4" d="M352.500 1.476 C 352.885 1.576,353.515 1.576,353.900 1.476 C 354.285 1.375,353.970 1.293,353.200 1.293 C 352.430 1.293,352.115 1.375,352.500 1.476 M349.700 2.012 C 348.361 2.551,348.611 2.824,350.000 2.340 C 350.660 2.110,351.200 1.849,351.200 1.761 C 351.200 1.524,350.713 1.605,349.700 2.012 M172.700 3.493 C 173.635 3.577,175.165 3.577,176.100 3.493 C 177.035 3.409,176.270 3.340,174.400 3.340 C 172.530 3.340,171.765 3.409,172.700 3.493 M164.600 4.000 C 163.511 4.277,163.493 4.307,164.400 4.325 C 164.950 4.335,165.760 4.189,166.200 4.000 C 167.186 3.576,166.266 3.576,164.600 4.000 M150.600 7.814 C 149.595 8.298,149.563 8.353,150.400 8.151 C 150.950 8.019,151.571 7.750,151.780 7.555 C 152.298 7.071,152.014 7.133,150.600 7.814 M136.770 16.300 L 135.800 17.400 137.000 16.400 C 137.660 15.850,138.275 15.355,138.367 15.300 C 138.458 15.245,138.355 15.200,138.136 15.200 C 137.918 15.200,137.303 15.695,136.770 16.300 M132.985 19.700 L 131.000 21.800 133.100 19.815 C 134.255 18.723,135.200 17.778,135.200 17.715 C 135.200 17.417,134.829 17.749,132.985 19.700 M126.344 27.500 C 125.193 28.889,124.706 29.600,124.904 29.600 C 125.014 29.600,125.586 28.970,126.173 28.200 C 127.263 26.771,127.395 26.232,126.344 27.500 M230.856 54.400 C 230.856 54.730,231.011 55.360,231.200 55.800 C 231.417 56.304,231.544 56.378,231.544 56.000 C 231.544 55.670,231.389 55.040,231.200 54.600 C 230.983 54.096,230.856 54.022,230.856 54.400 M391.949 58.200 C 392.165 58.640,392.634 59.360,392.993 59.800 L 393.644 60.600 393.251 59.800 C 393.035 59.360,392.566 58.640,392.207 58.200 L 391.556 57.400 391.949 58.200 M231.740 61.600 C 231.740 63.470,231.809 64.235,231.893 63.300 C 231.977 62.365,231.977 60.835,231.893 59.900 C 231.809 58.965,231.740 59.730,231.740 61.600 M349.019 63.700 C 349.228 64.249,349.074 64.400,348.305 64.400 C 347.765 64.400,346.981 64.805,346.562 65.300 C 345.801 66.199,345.801 66.199,346.631 65.500 C 347.089 65.115,347.843 64.800,348.308 64.800 C 349.357 64.800,349.846 64.085,349.221 63.465 C 348.864 63.110,348.816 63.166,349.019 63.700 M345.449 67.015 C 345.312 67.373,345.215 67.966,345.234 68.333 C 345.253 68.700,345.427 68.469,345.621 67.820 C 345.998 66.558,345.865 65.933,345.449 67.015 M231.301 68.600 C 231.305 69.480,231.387 69.793,231.483 69.295 C 231.579 68.798,231.575 68.078,231.475 67.695 C 231.375 67.313,231.296 67.720,231.301 68.600 M344.893 71.600 C 344.893 72.370,344.975 72.685,345.076 72.300 C 345.176 71.915,345.176 71.285,345.076 70.900 C 344.975 70.515,344.893 70.830,344.893 71.600 M396.501 73.800 C 396.505 74.680,396.587 74.993,396.683 74.495 C 396.779 73.998,396.775 73.278,396.675 72.895 C 396.575 72.513,396.496 72.920,396.501 73.800 M396.937 79.000 C 396.939 80.760,397.009 81.430,397.093 80.489 C 397.178 79.549,397.177 78.109,397.091 77.289 C 397.005 76.470,396.936 77.240,396.937 79.000 M234.687 79.209 C 235.395 79.951,236.042 80.478,236.125 80.379 C 236.208 80.281,235.629 79.673,234.838 79.029 L 233.400 77.858 234.687 79.209 M396.934 85.600 C 396.934 87.250,397.005 87.925,397.091 87.100 C 397.178 86.275,397.178 84.925,397.091 84.100 C 397.005 83.275,396.934 83.950,396.934 85.600 M241.583 85.300 C 243.241 87.066,243.600 87.384,243.600 87.083 C 243.600 87.019,242.745 86.164,241.700 85.183 L 239.800 83.400 241.583 85.300 M95.029 85.829 C 94.881 86.415,94.838 86.972,94.932 87.066 C 95.027 87.160,95.224 86.758,95.371 86.171 C 95.519 85.585,95.562 85.028,95.468 84.934 C 95.373 84.840,95.176 85.242,95.029 85.829 M349.949 88.200 C 350.165 88.640,350.634 89.360,350.993 89.800 L 351.644 90.600 351.251 89.800 C 351.035 89.360,350.566 88.640,350.207 88.200 L 349.556 87.400 349.949 88.200 M396.493 90.000 C 396.493 90.770,396.575 91.085,396.676 90.700 C 396.776 90.315,396.776 89.685,396.676 89.300 C 396.575 88.915,396.493 89.230,396.493 90.000 M93.709 96.400 C 93.709 97.390,93.787 97.795,93.882 97.300 C 93.978 96.805,93.978 95.995,93.882 95.500 C 93.787 95.005,93.709 95.410,93.709 96.400 M355.600 95.325 C 355.600 95.394,356.185 95.979,356.900 96.625 L 358.200 97.800 357.025 96.500 C 355.930 95.288,355.600 95.016,355.600 95.325 M239.062 98.731 C 238.357 99.511,238.174 101.013,238.742 101.364 C 238.930 101.481,238.998 101.125,238.893 100.574 C 238.774 99.952,238.971 99.274,239.413 98.786 C 239.804 98.354,240.034 98.000,239.924 98.000 C 239.814 98.000,239.426 98.329,239.062 98.731 M93.301 101.000 C 93.305 101.880,93.387 102.193,93.483 101.695 C 93.579 101.198,93.575 100.478,93.475 100.095 C 93.375 99.713,93.296 100.120,93.301 101.000 M362.166 108.800 C 362.166 112.870,362.225 114.535,362.298 112.500 C 362.371 110.465,362.371 107.135,362.298 105.100 C 362.225 103.065,362.166 104.730,362.166 108.800 M240.400 103.400 C 241.146 104.170,241.847 104.800,241.957 104.800 C 242.067 104.800,241.546 104.170,240.800 103.400 C 240.054 102.630,239.353 102.000,239.243 102.000 C 239.133 102.000,239.654 102.630,240.400 103.400 M91.449 108.215 C 91.312 108.573,91.218 109.256,91.241 109.733 C 91.267 110.281,91.403 110.086,91.610 109.203 C 91.960 107.716,91.865 107.133,91.449 108.215 M239.359 108.964 C 239.130 109.561,240.116 111.777,240.798 112.199 C 241.020 112.336,240.822 111.806,240.359 111.021 C 239.896 110.236,239.620 109.325,239.746 108.997 C 239.872 108.668,239.885 108.400,239.775 108.400 C 239.665 108.400,239.478 108.654,239.359 108.964 M390.940 116.000 C 390.940 117.870,391.009 118.635,391.093 117.700 C 391.177 116.765,391.177 115.235,391.093 114.300 C 391.009 113.365,390.940 114.130,390.940 116.000 M89.646 117.267 C 89.621 117.634,89.496 118.264,89.370 118.667 C 89.152 119.362,89.163 119.363,89.597 118.687 C 89.848 118.296,89.973 117.666,89.873 117.287 C 89.711 116.668,89.688 116.666,89.646 117.267 M238.093 121.200 C 238.093 121.970,238.175 122.285,238.276 121.900 C 238.376 121.515,238.376 120.885,238.276 120.500 C 238.175 120.115,238.093 120.430,238.093 121.200 M391.350 125.000 C 391.351 127.420,391.416 128.358,391.496 127.085 C 391.576 125.812,391.575 123.832,391.494 122.685 C 391.414 121.538,391.349 122.580,391.350 125.000 M361.301 123.400 C 361.305 124.280,361.387 124.593,361.483 124.095 C 361.579 123.598,361.575 122.878,361.475 122.495 C 361.375 122.113,361.296 122.520,361.301 123.400 M238.134 126.000 C 238.134 127.650,238.205 128.325,238.291 127.500 C 238.378 126.675,238.378 125.325,238.291 124.500 C 238.205 123.675,238.134 124.350,238.134 126.000 M359.309 138.800 C 359.309 139.790,359.387 140.195,359.482 139.700 C 359.578 139.205,359.578 138.395,359.482 137.900 C 359.387 137.405,359.309 137.810,359.309 138.800 M222.900 138.287 C 223.505 138.378,224.495 138.378,225.100 138.287 C 225.705 138.195,225.210 138.120,224.000 138.120 C 222.790 138.120,222.295 138.195,222.900 138.287 M219.505 138.683 C 220.002 138.779,220.722 138.775,221.105 138.675 C 221.487 138.575,221.080 138.496,220.200 138.501 C 219.320 138.505,219.007 138.587,219.505 138.683 M391.763 149.600 C 391.763 153.230,391.823 154.715,391.898 152.900 C 391.972 151.085,391.972 148.115,391.898 146.300 C 391.823 144.485,391.763 145.970,391.763 149.600 M358.493 145.600 C 358.493 146.370,358.575 146.685,358.676 146.300 C 358.776 145.915,358.776 145.285,358.676 144.900 C 358.575 144.515,358.493 144.830,358.493 145.600 M84.148 146.192 C 84.012 146.545,84.013 146.947,84.151 147.084 C 84.288 147.221,84.413 146.988,84.428 146.567 C 84.455 145.834,84.472 145.836,84.800 146.600 C 85.080 147.252,85.149 147.275,85.172 146.724 C 85.210 145.796,84.451 145.401,84.148 146.192 M85.301 149.400 C 85.305 150.280,85.387 150.593,85.483 150.095 C 85.579 149.598,85.575 148.878,85.475 148.495 C 85.375 148.113,85.296 148.520,85.301 149.400 M82.924 153.800 C 82.926 155.120,83.001 155.612,83.090 154.893 C 83.179 154.174,83.177 153.094,83.086 152.493 C 82.995 151.892,82.922 152.480,82.924 153.800 M357.693 153.200 C 357.693 153.970,357.775 154.285,357.876 153.900 C 357.976 153.515,357.976 152.885,357.876 152.500 C 357.775 152.115,357.693 152.430,357.693 153.200 M357.293 156.000 C 357.293 156.770,357.375 157.085,357.476 156.700 C 357.576 156.315,357.576 155.685,357.476 155.300 C 357.375 154.915,357.293 155.230,357.293 156.000 M86.662 161.000 C 86.796 161.880,86.972 162.675,87.053 162.767 C 87.356 163.110,87.129 160.968,86.781 160.200 C 86.529 159.642,86.493 159.885,86.662 161.000 M356.893 162.000 C 356.893 162.770,356.975 163.085,357.076 162.700 C 357.176 162.315,357.176 161.685,357.076 161.300 C 356.975 160.915,356.893 161.230,356.893 162.000 M392.189 190.600 C 392.189 205.560,392.239 211.622,392.300 204.071 C 392.361 196.520,392.361 184.280,392.300 176.871 C 392.239 169.462,392.189 175.640,392.189 190.600 M87.200 164.967 C 87.200 165.278,87.000 165.600,86.756 165.681 C 86.467 165.778,86.516 165.998,86.895 166.313 C 87.383 166.718,87.484 166.601,87.512 165.598 C 87.531 164.939,87.469 164.400,87.373 164.400 C 87.278 164.400,87.200 164.655,87.200 164.967 M356.528 166.800 C 356.528 168.230,356.601 168.815,356.689 168.100 C 356.778 167.385,356.778 166.215,356.689 165.500 C 356.601 164.785,356.528 165.370,356.528 166.800 M202.509 166.400 C 202.509 167.390,202.587 167.795,202.682 167.300 C 202.778 166.805,202.778 165.995,202.682 165.500 C 202.587 165.005,202.509 165.410,202.509 166.400 M356.093 172.000 C 356.093 172.770,356.175 173.085,356.276 172.700 C 356.376 172.315,356.376 171.685,356.276 171.300 C 356.175 170.915,356.093 171.230,356.093 172.000 M86.815 172.600 C 86.817 172.820,87.186 173.450,87.636 174.000 C 88.179 174.664,88.315 174.731,88.040 174.200 C 87.366 172.895,86.812 172.172,86.815 172.600 M355.724 178.600 C 355.726 179.920,355.801 180.412,355.890 179.693 C 355.979 178.974,355.977 177.894,355.886 177.293 C 355.795 176.692,355.722 177.280,355.724 178.600 M89.293 182.000 C 89.293 182.770,89.375 183.085,89.476 182.700 C 89.576 182.315,89.576 181.685,89.476 181.300 C 89.375 180.915,89.293 181.230,89.293 182.000 M355.293 182.400 C 355.293 183.170,355.375 183.485,355.476 183.100 C 355.576 182.715,355.576 182.085,355.476 181.700 C 355.375 181.315,355.293 181.630,355.293 182.400 M89.737 187.000 C 89.739 188.760,89.809 189.430,89.893 188.489 C 89.978 187.549,89.977 186.109,89.891 185.289 C 89.805 184.470,89.736 185.240,89.737 187.000 M354.909 189.600 C 354.909 190.590,354.987 190.995,355.082 190.500 C 355.178 190.005,355.178 189.195,355.082 188.700 C 354.987 188.205,354.909 188.610,354.909 189.600 M89.293 191.600 C 89.293 192.370,89.375 192.685,89.476 192.300 C 89.576 191.915,89.576 191.285,89.476 190.900 C 89.375 190.515,89.293 190.830,89.293 191.600 M238.400 191.982 C 238.730 192.205,239.345 192.391,239.767 192.394 C 240.790 192.402,240.471 192.173,239.000 191.844 C 238.124 191.648,237.962 191.685,238.400 191.982 M354.493 192.800 C 354.493 193.570,354.575 193.885,354.676 193.500 C 354.776 193.115,354.776 192.485,354.676 192.100 C 354.575 191.715,354.493 192.030,354.493 192.800 M243.600 193.200 C 244.150 193.376,244.960 193.520,245.400 193.520 C 246.033 193.520,245.992 193.454,245.200 193.200 C 244.650 193.024,243.840 192.880,243.400 192.880 C 242.767 192.880,242.808 192.946,243.600 193.200 M249.400 193.980 C 250.634 194.315,253.464 194.518,253.167 194.250 C 253.075 194.168,251.920 194.000,250.600 193.877 C 249.022 193.730,248.611 193.765,249.400 193.980 M259.305 195.087 C 259.914 195.179,260.814 195.177,261.305 195.082 C 261.797 194.987,261.300 194.911,260.200 194.914 C 259.100 194.917,258.697 194.995,259.305 195.087 M88.650 196.850 C 88.317 198.517,88.640 198.840,89.000 197.200 C 89.152 196.509,89.193 195.859,89.091 195.758 C 88.989 195.656,88.791 196.147,88.650 196.850 M266.900 195.876 C 267.285 195.976,267.915 195.976,268.300 195.876 C 268.685 195.775,268.370 195.693,267.600 195.693 C 266.830 195.693,266.515 195.775,266.900 195.876 M274.000 196.800 C 274.550 196.976,275.450 197.117,276.000 197.113 C 276.898 197.106,276.878 197.074,275.800 196.800 C 274.108 196.369,272.656 196.369,274.000 196.800 M354.093 198.400 C 354.093 199.170,354.175 199.485,354.276 199.100 C 354.376 198.715,354.376 198.085,354.276 197.700 C 354.175 197.315,354.093 197.630,354.093 198.400 M286.500 198.676 C 286.885 198.776,287.515 198.776,287.900 198.676 C 288.285 198.575,287.970 198.493,287.200 198.493 C 286.430 198.493,286.115 198.575,286.500 198.676 M293.200 199.600 C 293.750 199.776,294.560 199.920,295.000 199.920 C 295.633 199.920,295.592 199.854,294.800 199.600 C 294.250 199.424,293.440 199.280,293.000 199.280 C 292.367 199.280,292.408 199.346,293.200 199.600 M298.200 200.390 C 298.964 200.728,301.514 200.957,301.167 200.656 C 301.075 200.576,300.190 200.404,299.200 200.273 C 297.998 200.114,297.666 200.153,298.200 200.390 M353.701 201.800 C 353.705 202.680,353.787 202.993,353.883 202.495 C 353.979 201.998,353.975 201.278,353.875 200.895 C 353.775 200.513,353.696 200.920,353.701 201.800 M309.200 202.382 C 309.530 202.605,310.145 202.791,310.567 202.794 C 311.590 202.802,311.271 202.573,309.800 202.244 C 308.924 202.048,308.762 202.085,309.200 202.382 M313.200 203.182 C 313.530 203.405,314.145 203.591,314.567 203.594 C 315.590 203.602,315.271 203.373,313.800 203.044 C 312.924 202.848,312.762 202.885,313.200 203.182 M327.000 205.990 C 327.764 206.328,330.314 206.557,329.967 206.256 C 329.875 206.176,328.990 206.004,328.000 205.873 C 326.798 205.714,326.466 205.753,327.000 205.990 M334.100 207.076 C 334.485 207.176,335.115 207.176,335.500 207.076 C 335.885 206.975,335.570 206.893,334.800 206.893 C 334.030 206.893,333.715 206.975,334.100 207.076 M77.375 217.300 L 76.200 218.600 77.500 217.425 C 78.712 216.330,78.984 216.000,78.675 216.000 C 78.606 216.000,78.021 216.585,77.375 217.300 M391.714 223.800 C 391.717 224.900,391.795 225.303,391.887 224.695 C 391.979 224.086,391.977 223.186,391.882 222.695 C 391.787 222.203,391.711 222.700,391.714 223.800 M63.985 227.629 L 62.600 228.858 64.100 227.781 C 65.426 226.830,65.857 226.400,65.485 226.400 C 65.422 226.400,64.747 226.953,63.985 227.629 M391.324 230.200 C 391.326 231.520,391.401 232.012,391.490 231.293 C 391.579 230.574,391.577 229.494,391.486 228.893 C 391.395 228.292,391.322 228.880,391.324 230.200 M366.500 245.497 C 368.205 245.572,370.995 245.572,372.700 245.497 C 374.405 245.422,373.010 245.361,369.600 245.361 C 366.190 245.361,364.795 245.422,366.500 245.497 M359.900 245.882 C 360.395 245.978,361.205 245.978,361.700 245.882 C 362.195 245.787,361.790 245.709,360.800 245.709 C 359.810 245.709,359.405 245.787,359.900 245.882 M350.100 246.291 C 350.925 246.378,352.275 246.378,353.100 246.291 C 353.925 246.205,353.250 246.134,351.600 246.134 C 349.950 246.134,349.275 246.205,350.100 246.291 M345.300 246.687 C 345.905 246.778,346.895 246.778,347.500 246.687 C 348.105 246.595,347.610 246.520,346.400 246.520 C 345.190 246.520,344.695 246.595,345.300 246.687 M333.100 247.093 C 334.035 247.177,335.565 247.177,336.500 247.093 C 337.435 247.009,336.670 246.940,334.800 246.940 C 332.930 246.940,332.165 247.009,333.100 247.093 M319.500 247.498 C 321.535 247.571,324.865 247.571,326.900 247.498 C 328.935 247.425,327.270 247.366,323.200 247.366 C 319.130 247.366,317.465 247.425,319.500 247.498 M268.512 247.895 C 269.564 247.977,271.184 247.976,272.112 247.892 C 273.040 247.808,272.180 247.741,270.200 247.742 C 268.220 247.743,267.460 247.812,268.512 247.895 M293.900 247.897 C 295.495 247.973,298.105 247.973,299.700 247.897 C 301.295 247.821,299.990 247.759,296.800 247.759 C 293.610 247.759,292.305 247.821,293.900 247.897 M36.575 249.700 L 35.400 251.000 36.700 249.825 C 37.912 248.730,38.184 248.400,37.875 248.400 C 37.806 248.400,37.221 248.985,36.575 249.700 M28.985 256.500 L 27.000 258.600 29.100 256.615 C 30.255 255.523,31.200 254.578,31.200 254.515 C 31.200 254.217,30.829 254.549,28.985 256.500 M272.842 254.500 C 272.938 254.555,274.003 255.500,275.208 256.600 L 277.400 258.600 275.415 256.500 C 274.323 255.345,273.258 254.400,273.048 254.400 C 272.838 254.400,272.745 254.445,272.842 254.500 M279.999 262.300 C 280.522 263.015,281.013 263.600,281.089 263.600 C 281.393 263.600,280.401 262.100,279.745 261.567 C 279.313 261.216,279.410 261.496,279.999 262.300 M106.962 264.900 C 106.206 265.793,106.206 265.795,107.000 265.136 C 107.440 264.772,108.250 264.391,108.800 264.291 L 109.800 264.109 108.762 264.054 C 108.129 264.021,107.427 264.351,106.962 264.900 M16.975 268.500 L 15.800 269.800 17.100 268.625 C 17.815 267.979,18.400 267.394,18.400 267.325 C 18.400 267.016,18.070 267.288,16.975 268.500 M283.344 273.600 C 283.344 275.690,283.412 276.545,283.494 275.500 C 283.576 274.455,283.576 272.745,283.494 271.700 C 283.412 270.655,283.344 271.510,283.344 273.600 M111.687 272.000 C 111.683 272.550,111.824 273.450,112.000 274.000 C 112.431 275.344,112.431 273.892,112.000 272.200 C 111.726 271.122,111.694 271.102,111.687 272.000 M11.144 275.500 C 9.993 276.889,9.506 277.600,9.704 277.600 C 9.814 277.600,10.386 276.970,10.973 276.200 C 12.063 274.771,12.195 274.232,11.144 275.500 M91.093 276.614 C 90.272 277.172,89.600 277.715,89.600 277.820 C 89.600 277.925,90.320 277.535,91.200 276.953 C 92.597 276.028,93.070 275.600,92.693 275.600 C 92.634 275.600,91.914 276.056,91.093 276.614 M86.100 279.817 C 84.945 280.574,84.000 281.277,84.000 281.380 C 84.000 281.633,87.991 279.139,88.245 278.727 C 88.548 278.237,88.381 278.322,86.100 279.817 M81.400 282.853 C 80.300 283.534,79.220 284.276,79.000 284.503 C 78.557 284.958,81.314 283.390,82.834 282.321 C 84.431 281.198,83.539 281.529,81.400 282.853 M75.100 287.024 C 73.395 288.234,72.000 289.317,72.000 289.432 C 72.000 289.654,77.000 286.230,77.986 285.333 C 79.144 284.279,78.146 284.864,75.100 287.024 M70.175 290.900 L 69.000 292.200 70.300 291.025 C 71.512 289.930,71.784 289.600,71.475 289.600 C 71.406 289.600,70.821 290.185,70.175 290.900 M3.052 290.900 C 2.718 292.146,2.751 294.904,3.106 295.460 C 3.268 295.713,3.400 294.588,3.400 292.960 C 3.400 289.670,3.393 289.628,3.052 290.900 M120.446 294.700 C 120.482 295.543,120.539 295.613,120.693 295.000 C 120.803 294.560,121.097 294.068,121.346 293.906 C 121.634 293.720,121.544 293.610,121.100 293.606 C 120.590 293.602,120.413 293.899,120.446 294.700 M122.000 294.580 C 122.000 294.963,124.789 298.800,125.068 298.800 C 125.221 298.800,123.665 296.490,122.125 294.433 C 122.056 294.342,122.000 294.408,122.000 294.580 M119.626 295.800 C 119.627 296.020,119.975 296.920,120.400 297.800 L 121.173 299.400 121.180 297.600 C 121.185 296.431,121.066 295.992,120.841 296.348 C 120.560 296.790,120.410 296.752,120.059 296.148 C 119.820 295.737,119.625 295.580,119.626 295.800 M71.934 298.200 C 72.598 299.080,73.711 300.430,74.407 301.200 L 75.672 302.600 74.466 301.000 C 73.802 300.120,72.689 298.770,71.993 298.000 L 70.728 296.600 71.934 298.200 M126.000 300.400 C 126.470 301.060,126.944 301.600,127.054 301.600 C 127.164 301.600,126.870 301.060,126.400 300.400 C 125.930 299.740,125.456 299.200,125.346 299.200 C 125.236 299.200,125.530 299.740,126.000 300.400 M134.054 301.300 C 134.096 302.280,134.152 302.373,134.285 301.677 C 134.437 300.885,134.552 300.828,135.096 301.277 C 135.661 301.743,135.678 301.701,135.251 300.900 C 134.560 299.603,133.991 299.793,134.054 301.300 M270.985 302.100 L 269.000 304.200 271.100 302.215 C 273.051 300.371,273.383 300.000,273.085 300.000 C 273.022 300.000,272.077 300.945,270.985 302.100 M8.400 302.125 C 8.400 302.194,8.985 302.779,9.700 303.425 L 11.000 304.600 9.825 303.300 C 8.730 302.088,8.400 301.816,8.400 302.125 M127.823 303.100 C 128.235 303.815,128.714 304.400,128.886 304.400 C 129.406 304.400,129.252 304.096,128.136 302.921 L 127.073 301.800 127.823 303.100 M129.800 303.600 C 130.198 304.040,130.592 304.400,130.676 304.400 C 130.760 304.400,130.635 304.040,130.400 303.600 C 130.165 303.160,129.770 302.800,129.524 302.800 C 129.278 302.800,129.402 303.160,129.800 303.600 M136.600 304.000 C 136.941 304.660,137.311 305.200,137.421 305.200 C 137.531 305.200,137.341 304.660,137.000 304.000 C 136.659 303.340,136.289 302.800,136.179 302.800 C 136.069 302.800,136.259 303.340,136.600 304.000 M267.601 304.998 C 267.086 305.548,266.739 306.064,266.832 306.146 C 266.924 306.228,267.419 305.778,267.930 305.147 C 269.076 303.735,268.874 303.644,267.601 304.998 M131.639 306.176 C 132.101 306.959,132.556 307.600,132.650 307.600 C 132.934 307.600,131.636 305.269,131.202 305.001 C 130.980 304.864,131.177 305.393,131.639 306.176 M80.000 308.400 C 80.470 309.060,80.944 309.600,81.054 309.600 C 81.164 309.600,80.870 309.060,80.400 308.400 C 79.930 307.740,79.456 307.200,79.346 307.200 C 79.236 307.200,79.530 307.740,80.000 308.400 M266.501 308.600 C 266.505 309.480,266.587 309.793,266.683 309.295 C 266.779 308.798,266.775 308.078,266.675 307.695 C 266.575 307.313,266.496 307.720,266.501 308.600 M140.000 310.400 C 140.449 311.280,140.906 312.000,141.016 312.000 C 141.126 312.000,140.849 311.280,140.400 310.400 C 139.951 309.520,139.494 308.800,139.384 308.800 C 139.274 308.800,139.551 309.520,140.000 310.400 M133.935 309.800 C 134.542 310.996,135.575 312.257,135.573 311.800 C 135.572 311.580,135.112 310.860,134.550 310.200 C 133.988 309.540,133.712 309.360,133.935 309.800 M82.400 311.600 C 83.097 312.480,83.757 313.200,83.867 313.200 C 83.977 313.200,83.497 312.480,82.800 311.600 C 82.103 310.720,81.443 310.000,81.333 310.000 C 81.223 310.000,81.703 310.720,82.400 311.600 M266.101 313.000 C 266.105 313.880,266.187 314.193,266.283 313.695 C 266.379 313.198,266.375 312.478,266.275 312.095 C 266.175 311.713,266.096 312.120,266.101 313.000 M84.747 314.600 C 85.194 315.260,86.033 316.340,86.613 317.000 L 87.666 318.200 86.853 317.000 C 86.406 316.340,85.567 315.260,84.987 314.600 L 83.934 313.400 84.747 314.600 M142.000 314.149 C 142.000 314.581,143.589 317.600,143.816 317.600 C 143.926 317.600,143.630 316.835,143.159 315.900 C 142.232 314.061,142.000 313.711,142.000 314.149 M144.000 318.142 C 144.000 318.577,147.186 324.800,147.409 324.800 C 147.588 324.800,144.528 318.440,144.154 318.033 C 144.069 317.942,144.000 317.991,144.000 318.142 M265.769 327.400 C 265.770 332.020,265.828 333.855,265.899 331.478 C 265.970 329.101,265.969 325.321,265.898 323.078 C 265.827 320.835,265.769 322.780,265.769 327.400 M27.200 323.000 C 27.946 323.770,28.647 324.400,28.757 324.400 C 28.867 324.400,28.346 323.770,27.600 323.000 C 26.854 322.230,26.153 321.600,26.043 321.600 C 25.933 321.600,26.454 322.230,27.200 323.000 M92.960 325.500 C 94.004 326.875,94.934 328.000,95.028 328.000 C 95.308 328.000,92.443 324.133,91.726 323.544 C 91.362 323.245,91.917 324.125,92.960 325.500 M28.800 324.925 C 28.800 324.994,29.385 325.579,30.100 326.225 L 31.400 327.400 30.225 326.100 C 29.130 324.888,28.800 324.616,28.800 324.925 M33.983 330.500 C 35.641 332.266,36.000 332.584,36.000 332.283 C 36.000 332.219,35.145 331.364,34.100 330.383 L 32.200 328.600 33.983 330.500 M97.801 331.598 C 98.460 332.367,99.045 333.072,99.100 333.165 C 99.155 333.257,99.287 333.246,99.394 333.139 C 99.501 333.033,98.916 332.328,98.095 331.573 L 96.602 330.200 97.801 331.598 M150.412 330.849 C 150.393 331.252,152.020 334.800,152.224 334.800 C 152.327 334.800,152.148 334.172,151.827 333.404 C 151.155 331.795,150.430 330.486,150.412 330.849 M36.000 332.904 C 36.000 332.961,39.555 336.516,43.900 340.804 L 51.800 348.600 44.004 340.700 C 36.760 333.360,36.000 332.619,36.000 332.904 M104.600 338.800 C 107.454 341.660,109.878 344.000,109.988 344.000 C 110.098 344.000,107.854 341.660,105.000 338.800 C 102.146 335.940,99.722 333.600,99.612 333.600 C 99.502 333.600,101.746 335.940,104.600 338.800 M265.314 339.000 C 265.317 340.100,265.395 340.503,265.487 339.895 C 265.579 339.286,265.577 338.386,265.482 337.895 C 265.387 337.403,265.311 337.900,265.314 339.000 M118.600 353.200 C 122.335 356.940,125.481 360.000,125.591 360.000 C 125.701 360.000,122.735 356.940,119.000 353.200 C 115.265 349.460,112.119 346.400,112.009 346.400 C 111.899 346.400,114.865 349.460,118.600 353.200 M264.509 349.200 C 264.509 350.190,264.587 350.595,264.682 350.100 C 264.778 349.605,264.778 348.795,264.682 348.300 C 264.587 347.805,264.509 348.210,264.509 349.200 M157.268 350.200 C 157.262 350.640,157.411 351.360,157.600 351.800 C 158.038 352.819,158.038 351.768,157.600 350.400 C 157.343 349.596,157.277 349.557,157.268 350.200 M57.800 354.400 C 59.550 356.160,61.071 357.600,61.181 357.600 C 61.291 357.600,59.950 356.160,58.200 354.400 C 56.450 352.640,54.929 351.200,54.819 351.200 C 54.709 351.200,56.050 352.640,57.800 354.400 M158.068 353.800 C 158.062 354.240,158.211 354.960,158.400 355.400 C 158.838 356.419,158.838 355.368,158.400 354.000 C 158.143 353.196,158.077 353.157,158.068 353.800 M263.714 357.800 C 263.717 358.900,263.795 359.303,263.887 358.695 C 263.979 358.086,263.977 357.186,263.882 356.695 C 263.787 356.203,263.711 356.700,263.714 357.800 M128.783 362.900 C 130.441 364.666,130.800 364.984,130.800 364.683 C 130.800 364.619,129.945 363.764,128.900 362.783 L 127.000 361.000 128.783 362.900 M160.068 361.800 C 160.062 362.240,160.211 362.960,160.400 363.400 C 160.838 364.419,160.838 363.368,160.400 362.000 C 160.143 361.196,160.077 361.157,160.068 361.800 M68.400 363.375 C 68.400 363.583,72.148 366.401,73.200 366.985 C 74.248 367.566,73.133 366.612,70.700 364.845 C 69.435 363.926,68.400 363.265,68.400 363.375 M160.868 365.000 C 160.862 365.440,161.011 366.160,161.200 366.600 C 161.638 367.619,161.638 366.568,161.200 365.200 C 160.943 364.396,160.877 364.357,160.868 365.000 M132.783 366.500 C 134.441 368.266,134.800 368.584,134.800 368.283 C 134.800 368.219,133.945 367.364,132.900 366.383 L 131.000 364.600 132.783 366.500 M262.909 366.800 C 262.909 367.790,262.987 368.195,263.082 367.700 C 263.178 367.205,263.178 366.395,263.082 365.900 C 262.987 365.405,262.909 365.810,262.909 366.800 M161.701 369.400 C 161.705 370.280,161.787 370.593,161.883 370.095 C 161.979 369.598,161.975 368.878,161.875 368.495 C 161.775 368.113,161.696 368.520,161.701 369.400 M137.698 370.900 C 140.701 373.413,142.132 374.494,141.200 373.546 C 140.026 372.352,135.733 368.800,135.464 368.800 C 135.313 368.800,136.318 369.745,137.698 370.900 M262.493 370.000 C 262.493 370.770,262.575 371.085,262.676 370.700 C 262.776 370.315,262.776 369.685,262.676 369.300 C 262.575 368.915,262.493 369.230,262.493 370.000 M78.200 370.207 C 78.640 370.566,79.360 371.035,79.800 371.251 L 80.600 371.644 79.800 370.993 C 79.360 370.634,78.640 370.165,78.200 369.949 L 77.400 369.556 78.200 370.207 M261.800 374.800 C 261.648 375.491,261.607 376.141,261.709 376.242 C 261.811 376.344,262.009 375.853,262.150 375.150 C 262.291 374.447,262.331 373.798,262.241 373.708 C 262.150 373.617,261.952 374.109,261.800 374.800 M142.000 374.146 C 142.000 374.256,142.540 374.730,143.200 375.200 C 143.860 375.670,144.400 375.964,144.400 375.854 C 144.400 375.744,143.860 375.270,143.200 374.800 C 142.540 374.330,142.000 374.036,142.000 374.146 M160.820 376.976 C 160.557 377.293,159.950 377.628,159.471 377.722 C 158.625 377.886,158.624 377.893,159.438 377.946 C 159.899 377.975,160.602 377.640,161.000 377.200 C 161.398 376.760,161.628 376.400,161.511 376.400 C 161.394 376.400,161.083 376.659,160.820 376.976 M146.800 377.398 C 146.800 377.667,150.849 379.684,151.029 379.505 C 151.111 379.423,150.193 378.873,148.989 378.282 C 147.785 377.692,146.800 377.294,146.800 377.398 M140.200 409.407 C 140.640 409.766,141.360 410.235,141.800 410.451 L 142.600 410.844 141.800 410.193 C 141.360 409.834,140.640 409.365,140.200 409.149 L 139.400 408.756 140.200 409.407 M251.600 416.593 L 251.600 420.387 240.900 420.500 L 230.200 420.614 241.100 420.707 L 252.000 420.800 252.000 416.800 C 252.000 414.600,251.910 412.800,251.800 412.800 C 251.690 412.800,251.600 414.507,251.600 416.593 M150.383 416.900 C 152.041 418.666,152.400 418.984,152.400 418.683 C 152.400 418.619,151.545 417.764,150.500 416.783 L 148.600 415.000 150.383 416.900 " stroke="none" fill="#747474" fill-rule="evenodd"></path></g></svg>